<?xml version="1.0" standalone="no"?>
<!DOCTYPE svg PUBLIC "-//W3C//DTD SVG 20010904//EN"
 "http://www.w3.org/TR/2001/REC-SVG-20010904/DTD/svg10.dtd">
<svg version="1.0" xmlns="http://www.w3.org/2000/svg"
 width="500.000000pt" height="700.000000pt" viewBox="0 0 500.000000 700.000000"
 preserveAspectRatio="xMidYMid meet">
<metadata>
Created by potrace 1.16, written by Peter Selinger 2001-2019
</metadata>
<g transform="translate(0.000000,700.000000) scale(0.100000,-0.100000)"
fill="#000000" stroke="none">
<path d="M0 3500 l0 -3500 2500 0 2500 0 0 3500 0 3500 -2500 0 -2500 0 0
-3500z m4920 0 l0 -3420 -2420 0 -2420 0 0 3420 0 3420 2420 0 2420 0 0 -3420z"/>
<path d="M758 6779 c-37 -5 -98 -19 -135 -32 l-68 -24 -3 -71 c-2 -40 -1 -72
2 -72 2 0 37 16 77 35 166 78 334 62 384 -35 22 -42 19 -145 -5 -199 -41 -89
-167 -224 -377 -405 l-103 -87 0 -75 0 -74 343 2 342 3 3 58 3 57 -271 0
c-148 0 -270 3 -269 8 0 4 38 39 85 77 115 95 271 248 321 315 61 81 85 150
85 240 0 85 -16 131 -64 185 -68 78 -200 113 -350 94z"/>
<path d="M2399 5312 c-125 -65 -158 -234 -67 -338 l30 -34 -36 15 c-133 56
-296 -59 -296 -209 0 -46 21 -102 52 -141 84 -101 233 -107 327 -14 l41 41 0
-140 c0 -114 3 -143 16 -156 21 -22 50 -20 74 4 18 18 20 33 20 150 l0 131 37
-36 c44 -43 124 -69 180 -59 181 33 254 237 132 369 -63 68 -158 92 -237 60
l-37 -16 27 28 c73 76 78 201 11 290 -14 18 -48 43 -76 58 -69 34 -129 33
-198 -3z"/>
<path d="M2456 2658 c-13 -18 -16 -51 -16 -152 l0 -129 -22 28 c-27 35 -112
75 -159 75 -122 0 -229 -104 -229 -224 0 -136 145 -253 269 -216 41 12 50 6
28 -18 -27 -30 -47 -89 -47 -139 1 -141 135 -245 271 -213 62 15 124 67 150
125 32 70 19 175 -28 227 -22 24 -13 30 28 18 124 -37 269 80 269 216 0 120
-107 224 -229 224 -50 0 -133 -41 -164 -81 l-27 -34 0 146 c0 99 -4 149 -12
157 -20 20 -65 14 -82 -10z"/>
<path d="M3787 1253 c-4 -3 -7 -30 -7 -60 l0 -53 270 0 c149 0 270 -3 270 -7
-1 -5 -40 -40 -88 -80 -119 -99 -269 -246 -320 -314 -76 -101 -103 -225 -72
-334 19 -68 86 -135 166 -164 100 -38 288 -27 409 23 l35 15 0 70 c0 39 -2 71
-4 71 -2 0 -37 -16 -77 -35 -161 -75 -324 -63 -379 28 -27 44 -27 146 1 206
38 86 139 196 337 368 l142 125 0 74 0 74 -338 0 c-186 0 -342 -3 -345 -7z"/>
</g>
</svg>
