<?xml version="1.0" standalone="no"?>
<!DOCTYPE svg PUBLIC "-//W3C//DTD SVG 20010904//EN"
 "http://www.w3.org/TR/2001/REC-SVG-20010904/DTD/svg10.dtd">
<svg version="1.0" xmlns="http://www.w3.org/2000/svg"
 width="500.000000pt" height="700.000000pt" viewBox="0 0 500.000000 700.000000"
 preserveAspectRatio="xMidYMid meet">
<metadata>
Created by potrace 1.16, written by Peter Selinger 2001-2019
</metadata>
<g transform="translate(0.000000,700.000000) scale(0.100000,-0.100000)"
fill="#000000" stroke="none">
<path d="M0 3500 l0 -3500 2500 0 2500 0 0 3500 0 3500 -2500 0 -2500 0 0
-3500z m4920 0 l0 -3420 -2420 0 -2420 0 0 3420 0 3420 2420 0 2420 0 0 -3420z"/>
<path d="M758 6779 c-37 -5 -98 -19 -135 -32 l-68 -24 -3 -71 c-2 -40 -1 -72
2 -72 2 0 37 16 77 35 166 78 334 62 384 -35 22 -42 19 -145 -5 -199 -41 -89
-167 -224 -377 -405 l-103 -87 0 -75 0 -74 343 2 342 3 3 58 3 57 -271 0
c-148 0 -270 3 -269 8 0 4 38 39 85 77 115 95 271 248 321 315 61 81 85 150
85 240 0 85 -16 131 -64 185 -68 78 -200 113 -350 94z"/>
<path d="M2450 5313 c-24 -26 -124 -132 -222 -236 -110 -115 -187 -204 -198
-230 -26 -55 -26 -148 -1 -203 69 -151 274 -191 394 -77 l27 27 0 -121 c0 -97
3 -125 16 -137 21 -22 50 -20 74 4 18 18 20 33 20 131 l0 111 30 -25 c69 -58
190 -73 267 -33 44 22 93 74 114 121 25 53 24 147 0 201 -12 26 -105 132 -240
275 -122 129 -226 235 -230 237 -4 1 -27 -19 -51 -45z"/>
<path d="M2456 2658 c-12 -17 -16 -49 -16 -131 l0 -109 -34 30 c-46 40 -96 55
-171 50 -126 -8 -215 -98 -223 -224 -5 -78 14 -137 61 -185 18 -19 120 -126
227 -239 107 -113 197 -205 200 -205 3 0 93 92 200 205 107 113 209 220 227
239 47 48 66 107 61 185 -8 126 -97 216 -223 224 -78 5 -126 -10 -176 -55
l-39 -35 0 124 c0 83 -4 128 -12 136 -20 20 -65 14 -82 -10z"/>
<path d="M3787 1253 c-4 -3 -7 -30 -7 -60 l0 -53 270 0 c149 0 270 -3 270 -7
-1 -5 -40 -40 -88 -80 -119 -99 -269 -246 -320 -314 -76 -101 -103 -225 -72
-334 19 -68 86 -135 166 -164 100 -38 288 -27 409 23 l35 15 0 70 c0 39 -2 71
-4 71 -2 0 -37 -16 -77 -35 -161 -75 -324 -63 -379 28 -27 44 -27 146 1 206
38 86 139 196 337 368 l142 125 0 74 0 74 -338 0 c-186 0 -342 -3 -345 -7z"/>
</g>
</svg>
