<?xml version="1.0" standalone="no"?>
<!DOCTYPE svg PUBLIC "-//W3C//DTD SVG 20010904//EN"
 "http://www.w3.org/TR/2001/REC-SVG-20010904/DTD/svg10.dtd">
<svg version="1.0" xmlns="http://www.w3.org/2000/svg"
 width="500.000000pt" height="700.000000pt" viewBox="0 0 500.000000 700.000000"
 preserveAspectRatio="xMidYMid meet">
<metadata>
Created by potrace 1.16, written by Peter Selinger 2001-2019
</metadata>
<g transform="translate(0.000000,700.000000) scale(0.100000,-0.100000)"
fill="#000000" stroke="none">
<path d="M0 3500 l0 -3500 2500 0 2500 0 0 3500 0 3500 -2500 0 -2500 0 0
-3500z m4920 0 l0 -3420 -2420 0 -2420 0 0 3420 0 3420 2420 0 2420 0 0 -3420z"/>
<path d="M775 6779 c-33 -4 -94 -18 -135 -31 l-75 -24 -3 -72 c-2 -40 0 -72 3
-72 3 0 27 11 53 24 84 42 153 59 232 59 127 0 190 -48 190 -146 0 -94 -81
-157 -202 -157 l-68 0 0 -59 0 -59 88 -4 c145 -7 194 -49 200 -172 3 -59 0
-80 -17 -114 -63 -124 -258 -143 -453 -46 -26 13 -50 24 -53 24 -3 0 -5 -32
-3 -72 l3 -72 74 -23 c264 -83 478 -27 564 147 33 68 37 194 7 255 -27 56 -72
93 -146 121 l-56 21 46 17 c53 20 122 84 142 131 31 75 11 180 -44 238 -66 70
-206 105 -347 86z"/>
<path d="M2399 5312 c-125 -65 -158 -234 -67 -338 l30 -34 -36 15 c-133 56
-296 -59 -296 -209 0 -46 21 -102 52 -141 84 -101 233 -107 327 -14 l41 41 0
-140 c0 -114 3 -143 16 -156 21 -22 50 -20 74 4 18 18 20 33 20 150 l0 131 37
-36 c44 -43 124 -69 180 -59 181 33 254 237 132 369 -63 68 -158 92 -237 60
l-37 -16 27 28 c73 76 78 201 11 290 -14 18 -48 43 -76 58 -69 34 -129 33
-198 -3z"/>
<path d="M2399 3942 c-125 -65 -158 -234 -67 -338 l30 -34 -36 15 c-133 56
-296 -59 -296 -209 0 -46 21 -102 52 -141 84 -101 233 -107 327 -14 l41 41 0
-140 c0 -114 3 -143 16 -156 21 -22 50 -20 74 4 18 18 20 33 20 150 l0 131 37
-36 c44 -43 124 -69 180 -59 181 33 254 237 132 369 -63 68 -158 92 -237 60
l-37 -16 27 28 c73 76 78 201 11 290 -14 18 -48 43 -76 58 -69 34 -129 33
-198 -3z"/>
<path d="M2456 2658 c-13 -18 -16 -51 -16 -152 l0 -129 -22 28 c-27 35 -112
75 -159 75 -122 0 -229 -104 -229 -224 0 -136 145 -253 269 -216 41 12 50 6
28 -18 -27 -30 -47 -89 -47 -139 1 -141 135 -245 271 -213 62 15 124 67 150
125 32 70 19 175 -28 227 -22 24 -13 30 28 18 124 -37 269 80 269 216 0 120
-107 224 -229 224 -50 0 -133 -41 -164 -81 l-27 -34 0 146 c0 99 -4 149 -12
157 -20 20 -65 14 -82 -10z"/>
<path d="M4082 1269 c-87 -15 -148 -47 -201 -105 -59 -64 -81 -124 -81 -218 0
-120 49 -188 166 -232 l56 -21 -46 -17 c-53 -20 -115 -77 -139 -128 -22 -47
-22 -132 2 -183 65 -141 281 -188 521 -113 l75 24 3 72 c2 40 0 72 -3 72 -3 0
-29 -12 -57 -26 -79 -40 -146 -57 -228 -57 -127 0 -190 48 -190 146 0 94 81
157 202 157 l68 0 0 59 0 58 -89 5 c-142 8 -192 49 -199 164 -8 122 36 186
152 219 88 26 201 7 318 -51 26 -13 50 -24 53 -24 3 0 5 32 5 70 0 67 -1 71
-27 81 -117 44 -268 65 -361 48z"/>
</g>
</svg>
