<?xml version="1.0" standalone="no"?>
<!DOCTYPE svg PUBLIC "-//W3C//DTD SVG 20010904//EN"
 "http://www.w3.org/TR/2001/REC-SVG-20010904/DTD/svg10.dtd">
<svg version="1.0" xmlns="http://www.w3.org/2000/svg"
 width="500.000000pt" height="700.000000pt" viewBox="0 0 500.000000 700.000000"
 preserveAspectRatio="xMidYMid meet">
<metadata>
Created by potrace 1.16, written by Peter Selinger 2001-2019
</metadata>
<g transform="translate(0.000000,700.000000) scale(0.100000,-0.100000)"
fill="#000000" stroke="none">
<path d="M0 3500 l0 -3500 2500 0 2500 0 0 3500 0 3500 -2500 0 -2500 0 0
-3500z m4920 0 l0 -3420 -2420 0 -2420 0 0 3420 0 3420 2420 0 2420 0 0 -3420z"/>
<path d="M775 6779 c-33 -4 -94 -18 -135 -31 l-75 -24 -3 -72 c-2 -40 0 -72 3
-72 3 0 27 11 53 24 84 42 153 59 232 59 127 0 190 -48 190 -146 0 -94 -81
-157 -202 -157 l-68 0 0 -59 0 -59 88 -4 c145 -7 194 -49 200 -172 3 -59 0
-80 -17 -114 -63 -124 -258 -143 -453 -46 -26 13 -50 24 -53 24 -3 0 -5 -32
-3 -72 l3 -72 74 -23 c264 -83 478 -27 564 147 33 68 37 194 7 255 -27 56 -72
93 -146 121 l-56 21 46 17 c53 20 122 84 142 131 31 75 11 180 -44 238 -66 70
-206 105 -347 86z"/>
<path d="M2312 5115 l-182 -245 182 -245 c101 -134 185 -244 188 -244 3 0 87
110 188 244 l182 245 -182 245 c-101 134 -185 244 -188 244 -3 0 -87 -110
-188 -244z"/>
<path d="M2312 3745 l-182 -245 182 -245 c101 -134 185 -244 188 -244 3 0 87
110 188 244 l182 245 -182 245 c-101 134 -185 244 -188 244 -3 0 -87 -110
-188 -244z"/>
<path d="M2315 2379 c-99 -132 -179 -245 -177 -250 4 -16 354 -479 362 -479 8
0 358 463 362 479 3 10 -352 491 -362 491 -3 0 -86 -108 -185 -241z"/>
<path d="M4082 1269 c-87 -15 -148 -47 -201 -105 -59 -64 -81 -124 -81 -218 0
-120 49 -188 166 -232 l56 -21 -46 -17 c-53 -20 -115 -77 -139 -128 -22 -47
-22 -132 2 -183 65 -141 281 -188 521 -113 l75 24 3 72 c2 40 0 72 -3 72 -3 0
-29 -12 -57 -26 -79 -40 -146 -57 -228 -57 -127 0 -190 48 -190 146 0 94 81
157 202 157 l68 0 0 59 0 58 -89 5 c-142 8 -192 49 -199 164 -8 122 36 186
152 219 88 26 201 7 318 -51 26 -13 50 -24 53 -24 3 0 5 32 5 70 0 67 -1 71
-27 81 -117 44 -268 65 -361 48z"/>
</g>
</svg>
