<?xml version="1.0" standalone="no"?>
<!DOCTYPE svg PUBLIC "-//W3C//DTD SVG 20010904//EN"
 "http://www.w3.org/TR/2001/REC-SVG-20010904/DTD/svg10.dtd">
<svg version="1.0" xmlns="http://www.w3.org/2000/svg"
 width="500.000000pt" height="700.000000pt" viewBox="0 0 500.000000 700.000000"
 preserveAspectRatio="xMidYMid meet">
<metadata>
Created by potrace 1.16, written by Peter Selinger 2001-2019
</metadata>
<g transform="translate(0.000000,700.000000) scale(0.100000,-0.100000)"
fill="#000000" stroke="none">
<path d="M0 3500 l0 -3500 2500 0 2500 0 0 3500 0 3500 -2500 0 -2500 0 0
-3500z m4920 0 l0 -3420 -2420 0 -2420 0 0 3420 0 3420 2420 0 2420 0 0 -3420z"/>
<path d="M775 6779 c-33 -4 -94 -18 -135 -31 l-75 -24 -3 -72 c-2 -40 0 -72 3
-72 3 0 27 11 53 24 84 42 153 59 232 59 127 0 190 -48 190 -146 0 -94 -81
-157 -202 -157 l-68 0 0 -59 0 -59 88 -4 c145 -7 194 -49 200 -172 3 -59 0
-80 -17 -114 -63 -124 -258 -143 -453 -46 -26 13 -50 24 -53 24 -3 0 -5 -32
-3 -72 l3 -72 74 -23 c264 -83 478 -27 564 147 33 68 37 194 7 255 -27 56 -72
93 -146 121 l-56 21 46 17 c53 20 122 84 142 131 31 75 11 180 -44 238 -66 70
-206 105 -347 86z"/>
<path d="M2145 5336 c-89 -42 -134 -117 -135 -221 0 -79 9 -95 205 -356 88
-118 187 -251 220 -296 33 -45 62 -82 65 -82 3 0 32 37 65 82 33 45 132 178
220 296 195 260 205 277 205 353 0 144 -101 248 -243 248 -69 0 -120 -19 -165
-63 -36 -34 -72 -96 -72 -122 0 -8 -4 -15 -10 -15 -5 0 -10 7 -10 15 0 26 -36
88 -72 122 -70 67 -180 83 -273 39z"/>
<path d="M2145 3966 c-89 -42 -134 -117 -135 -221 0 -79 9 -95 205 -356 88
-118 187 -251 220 -296 33 -45 62 -82 65 -82 3 0 32 37 65 82 33 45 132 178
220 296 195 260 205 277 205 353 0 144 -101 248 -243 248 -69 0 -120 -19 -165
-63 -36 -34 -72 -96 -72 -122 0 -8 -4 -15 -10 -15 -5 0 -10 7 -10 15 0 26 -36
88 -72 122 -70 67 -180 83 -273 39z"/>
<path d="M2320 2383 c-96 -131 -197 -265 -224 -298 -66 -82 -86 -127 -86 -200
0 -95 51 -179 133 -221 80 -42 201 -25 274 39 35 31 73 94 73 122 0 8 5 15 10
15 6 0 10 -7 10 -15 0 -28 38 -91 73 -122 73 -64 194 -81 274 -39 146 75 178
269 66 397 -17 19 -117 151 -222 294 -106 143 -195 261 -199 263 -4 1 -86
-105 -182 -235z"/>
<path d="M4082 1269 c-87 -15 -148 -47 -201 -105 -59 -64 -81 -124 -81 -218 0
-120 49 -188 166 -232 l56 -21 -46 -17 c-53 -20 -115 -77 -139 -128 -22 -47
-22 -132 2 -183 65 -141 281 -188 521 -113 l75 24 3 72 c2 40 0 72 -3 72 -3 0
-29 -12 -57 -26 -79 -40 -146 -57 -228 -57 -127 0 -190 48 -190 146 0 94 81
157 202 157 l68 0 0 59 0 58 -89 5 c-142 8 -192 49 -199 164 -8 122 36 186
152 219 88 26 201 7 318 -51 26 -13 50 -24 53 -24 3 0 5 32 5 70 0 67 -1 71
-27 81 -117 44 -268 65 -361 48z"/>
</g>
</svg>
