<?xml version="1.0" standalone="no"?>
<!DOCTYPE svg PUBLIC "-//W3C//DTD SVG 20010904//EN"
 "http://www.w3.org/TR/2001/REC-SVG-20010904/DTD/svg10.dtd">
<svg version="1.0" xmlns="http://www.w3.org/2000/svg"
 width="500.000000pt" height="700.000000pt" viewBox="0 0 500.000000 700.000000"
 preserveAspectRatio="xMidYMid meet">
<metadata>
Created by potrace 1.16, written by Peter Selinger 2001-2019
</metadata>
<g transform="translate(0.000000,700.000000) scale(0.100000,-0.100000)"
fill="#000000" stroke="none">
<path d="M0 3500 l0 -3500 2500 0 2500 0 0 3500 0 3500 -2500 0 -2500 0 0
-3500z m4920 0 l0 -3420 -2420 0 -2420 0 0 3420 0 3420 2420 0 2420 0 0 -3420z"/>
<path d="M775 6779 c-33 -4 -94 -18 -135 -31 l-75 -24 -3 -72 c-2 -40 0 -72 3
-72 3 0 27 11 53 24 84 42 153 59 232 59 127 0 190 -48 190 -146 0 -94 -81
-157 -202 -157 l-68 0 0 -59 0 -59 88 -4 c145 -7 194 -49 200 -172 3 -59 0
-80 -17 -114 -63 -124 -258 -143 -453 -46 -26 13 -50 24 -53 24 -3 0 -5 -32
-3 -72 l3 -72 74 -23 c264 -83 478 -27 564 147 33 68 37 194 7 255 -27 56 -72
93 -146 121 l-56 21 46 17 c53 20 122 84 142 131 31 75 11 180 -44 238 -66 70
-206 105 -347 86z"/>
<path d="M2450 5313 c-24 -26 -124 -132 -222 -236 -110 -115 -187 -204 -198
-230 -26 -55 -26 -148 -1 -203 69 -151 274 -191 394 -77 l27 27 0 -121 c0 -97
3 -125 16 -137 21 -22 50 -20 74 4 18 18 20 33 20 131 l0 111 30 -25 c69 -58
190 -73 267 -33 44 22 93 74 114 121 25 53 24 147 0 201 -12 26 -105 132 -240
275 -122 129 -226 235 -230 237 -4 1 -27 -19 -51 -45z"/>
<path d="M2450 3943 c-24 -26 -124 -132 -222 -236 -110 -115 -187 -204 -198
-230 -26 -55 -26 -148 -1 -203 69 -151 274 -191 394 -77 l27 27 0 -121 c0 -97
3 -125 16 -137 21 -22 50 -20 74 4 18 18 20 33 20 131 l0 111 30 -25 c69 -58
190 -73 267 -33 44 22 93 74 114 121 25 53 24 147 0 201 -12 26 -105 132 -240
275 -122 129 -226 235 -230 237 -4 1 -27 -19 -51 -45z"/>
<path d="M2456 2658 c-12 -17 -16 -49 -16 -131 l0 -109 -34 30 c-46 40 -96 55
-171 50 -126 -8 -215 -98 -223 -224 -5 -78 14 -137 61 -185 18 -19 120 -126
227 -239 107 -113 197 -205 200 -205 3 0 93 92 200 205 107 113 209 220 227
239 47 48 66 107 61 185 -8 126 -97 216 -223 224 -78 5 -126 -10 -176 -55
l-39 -35 0 124 c0 83 -4 128 -12 136 -20 20 -65 14 -82 -10z"/>
<path d="M4082 1269 c-87 -15 -148 -47 -201 -105 -59 -64 -81 -124 -81 -218 0
-120 49 -188 166 -232 l56 -21 -46 -17 c-53 -20 -115 -77 -139 -128 -22 -47
-22 -132 2 -183 65 -141 281 -188 521 -113 l75 24 3 72 c2 40 0 72 -3 72 -3 0
-29 -12 -57 -26 -79 -40 -146 -57 -228 -57 -127 0 -190 48 -190 146 0 94 81
157 202 157 l68 0 0 59 0 58 -89 5 c-142 8 -192 49 -199 164 -8 122 36 186
152 219 88 26 201 7 318 -51 26 -13 50 -24 53 -24 3 0 5 32 5 70 0 67 -1 71
-27 81 -117 44 -268 65 -361 48z"/>
</g>
</svg>
