<?xml version="1.0" standalone="no"?>
<!DOCTYPE svg PUBLIC "-//W3C//DTD SVG 20010904//EN"
 "http://www.w3.org/TR/2001/REC-SVG-20010904/DTD/svg10.dtd">
<svg version="1.0" xmlns="http://www.w3.org/2000/svg"
 width="500.000000pt" height="700.000000pt" viewBox="0 0 500.000000 700.000000"
 preserveAspectRatio="xMidYMid meet">
<metadata>
Created by potrace 1.16, written by Peter Selinger 2001-2019
</metadata>
<g transform="translate(0.000000,700.000000) scale(0.100000,-0.100000)"
fill="#000000" stroke="none">
<path d="M0 3500 l0 -3500 2500 0 2500 0 0 3500 0 3500 -2500 0 -2500 0 0
-3500z m4920 0 l0 -3420 -2420 0 -2420 0 0 3420 0 3420 2420 0 2420 0 0 -3420z"/>
<path d="M716 6474 l-246 -287 0 -78 0 -79 245 0 245 0 0 -145 0 -145 65 0 65
0 0 145 0 145 75 0 75 0 0 55 0 55 -75 0 -75 0 0 310 0 310 -64 0 -64 0 -246
-286z m244 -109 l0 -225 -196 0 c-193 0 -196 0 -183 19 29 41 364 429 372 430
4 1 7 -100 7 -224z"/>
<path d="M1402 5115 l-182 -245 182 -245 c101 -134 185 -244 188 -244 3 0 87
110 188 244 l182 245 -182 245 c-101 134 -185 244 -188 244 -3 0 -87 -110
-188 -244z"/>
<path d="M3222 5115 l-182 -245 182 -245 c101 -134 185 -244 188 -244 3 0 87
110 188 244 l182 245 -182 245 c-101 134 -185 244 -188 244 -3 0 -87 -110
-188 -244z"/>
<path d="M1403 2376 l-182 -244 185 -247 185 -247 185 247 c114 151 182 250
177 258 -21 36 -356 477 -362 477 -3 -1 -88 -110 -188 -244z"/>
<path d="M3228 2388 c-96 -128 -177 -238 -181 -245 -5 -8 63 -107 177 -258
l185 -246 184 247 185 247 -181 243 c-100 134 -185 243 -188 244 -4 0 -85
-105 -181 -232z"/>
<path d="M3910 1115 l0 -145 -75 0 -75 0 0 -55 0 -55 75 0 75 0 0 -310 0 -310
64 0 64 0 246 286 246 285 0 80 0 79 -245 0 -245 0 0 145 0 145 -65 0 -65 0 0
-145z m514 -267 c-6 -10 -322 -382 -376 -442 -4 -6 -8 94 -8 222 l0 232 196 0
c153 0 194 -3 188 -12z"/>
</g>
</svg>
