<?xml version="1.0" standalone="no"?>
<!DOCTYPE svg PUBLIC "-//W3C//DTD SVG 20010904//EN"
 "http://www.w3.org/TR/2001/REC-SVG-20010904/DTD/svg10.dtd">
<svg version="1.0" xmlns="http://www.w3.org/2000/svg"
 width="500.000000pt" height="700.000000pt" viewBox="0 0 500.000000 700.000000"
 preserveAspectRatio="xMidYMid meet">
<metadata>
Created by potrace 1.16, written by Peter Selinger 2001-2019
</metadata>
<g transform="translate(0.000000,700.000000) scale(0.100000,-0.100000)"
fill="#000000" stroke="none">
<path d="M0 3500 l0 -3500 2500 0 2500 0 0 3500 0 3500 -2500 0 -2500 0 0
-3500z m4920 0 l0 -3420 -2420 0 -2420 0 0 3420 0 3420 2420 0 2420 0 0 -3420z"/>
<path d="M716 6474 l-246 -287 0 -78 0 -79 245 0 245 0 0 -145 0 -145 65 0 65
0 0 145 0 145 75 0 75 0 0 55 0 55 -75 0 -75 0 0 310 0 310 -64 0 -64 0 -246
-286z m244 -109 l0 -225 -196 0 c-193 0 -196 0 -183 19 29 41 364 429 372 430
4 1 7 -100 7 -224z"/>
<path d="M1235 5336 c-89 -42 -134 -117 -135 -221 0 -79 9 -95 205 -356 88
-118 187 -251 220 -296 33 -45 62 -82 65 -82 3 0 32 37 65 82 33 45 132 178
220 296 195 260 205 277 205 353 0 144 -101 248 -243 248 -69 0 -120 -19 -165
-63 -36 -34 -72 -96 -72 -122 0 -8 -4 -15 -10 -15 -5 0 -10 7 -10 15 0 26 -36
88 -72 122 -70 67 -180 83 -273 39z"/>
<path d="M3055 5336 c-89 -42 -134 -117 -135 -221 0 -79 9 -95 205 -356 88
-118 187 -251 220 -296 33 -45 62 -82 65 -82 3 0 32 37 65 82 33 45 132 178
220 296 195 260 205 277 205 353 0 144 -101 248 -243 248 -69 0 -120 -19 -165
-63 -36 -34 -72 -96 -72 -122 0 -8 -4 -15 -10 -15 -5 0 -10 7 -10 15 0 26 -36
88 -72 122 -70 67 -180 83 -273 39z"/>
<path d="M1400 2367 c-102 -138 -205 -276 -229 -307 -69 -85 -87 -160 -59
-254 16 -55 99 -138 154 -154 129 -38 254 21 305 143 l23 56 13 -43 c27 -94
129 -168 227 -168 100 1 174 45 220 130 51 94 35 209 -43 295 -15 17 -115 148
-221 293 -107 144 -197 262 -200 262 -3 0 -88 -114 -190 -253z"/>
<path d="M3210 2358 c-107 -145 -209 -280 -227 -300 -119 -136 -70 -345 94
-404 128 -45 279 28 316 154 l13 43 23 -56 c51 -122 176 -181 305 -143 55 16
138 99 154 154 28 94 10 169 -59 254 -24 31 -127 169 -229 307 -102 139 -188
253 -191 253 -3 0 -93 -118 -199 -262z"/>
<path d="M3910 1115 l0 -145 -75 0 -75 0 0 -55 0 -55 75 0 75 0 0 -310 0 -310
64 0 64 0 246 286 246 285 0 80 0 79 -245 0 -245 0 0 145 0 145 -65 0 -65 0 0
-145z m514 -267 c-6 -10 -322 -382 -376 -442 -4 -6 -8 94 -8 222 l0 232 196 0
c153 0 194 -3 188 -12z"/>
</g>
</svg>
