<?xml version="1.0" standalone="no"?>
<!DOCTYPE svg PUBLIC "-//W3C//DTD SVG 20010904//EN"
 "http://www.w3.org/TR/2001/REC-SVG-20010904/DTD/svg10.dtd">
<svg version="1.0" xmlns="http://www.w3.org/2000/svg"
 width="500.000000pt" height="700.000000pt" viewBox="0 0 500.000000 700.000000"
 preserveAspectRatio="xMidYMid meet">
<metadata>
Created by potrace 1.16, written by Peter Selinger 2001-2019
</metadata>
<g transform="translate(0.000000,700.000000) scale(0.100000,-0.100000)"
fill="#000000" stroke="none">
<path d="M0 3500 l0 -3500 2500 0 2500 0 0 3500 0 3500 -2500 0 -2500 0 0
-3500z m4920 0 l0 -3420 -2420 0 -2420 0 0 3420 0 3420 2420 0 2420 0 0 -3420z"/>
<path d="M716 6474 l-246 -287 0 -78 0 -79 245 0 245 0 0 -145 0 -145 65 0 65
0 0 145 0 145 75 0 75 0 0 55 0 55 -75 0 -75 0 0 310 0 310 -64 0 -64 0 -246
-286z m244 -109 l0 -225 -196 0 c-193 0 -196 0 -183 19 29 41 364 429 372 430
4 1 7 -100 7 -224z"/>
<path d="M1540 5313 c-24 -26 -124 -132 -222 -236 -110 -115 -187 -204 -198
-230 -26 -55 -26 -148 -1 -203 69 -151 274 -191 394 -77 l27 27 0 -121 c0 -97
3 -125 16 -137 21 -22 50 -20 74 4 18 18 20 33 20 131 l0 111 30 -25 c69 -58
190 -73 267 -33 44 22 93 74 114 121 25 53 24 147 0 201 -12 26 -105 132 -240
275 -122 129 -226 235 -230 237 -4 1 -27 -19 -51 -45z"/>
<path d="M3360 5313 c-24 -26 -124 -132 -222 -236 -110 -115 -187 -204 -198
-230 -26 -55 -26 -148 -1 -203 69 -151 274 -191 394 -77 l27 27 0 -121 c0 -97
3 -125 16 -137 21 -22 50 -20 74 4 18 18 20 33 20 131 l0 111 30 -25 c69 -58
190 -73 267 -33 44 22 93 74 114 121 25 53 24 147 0 201 -12 26 -105 132 -240
275 -122 129 -226 235 -230 237 -4 1 -27 -19 -51 -45z"/>
<path d="M1549 2663 c-9 -10 -16 -54 -19 -124 l-5 -108 -44 29 c-113 77 -274
42 -346 -74 -24 -40 -30 -62 -33 -120 -3 -60 0 -78 20 -113 13 -24 124 -149
247 -279 l225 -237 35 39 c19 21 119 127 222 235 103 108 197 216 210 240 27
52 30 145 7 199 -38 88 -129 150 -223 150 -68 0 -112 -14 -157 -50 l-38 -31 0
108 c0 82 -4 114 -16 131 -18 26 -65 30 -85 5z"/>
<path d="M3367 2662 c-14 -15 -17 -40 -17 -131 l0 -112 -38 31 c-123 99 -317
48 -380 -100 -23 -54 -20 -147 7 -199 13 -24 107 -132 210 -240 103 -108 203
-214 222 -235 l35 -39 225 237 c123 130 234 255 247 279 34 63 28 166 -13 233
-79 126 -264 154 -373 55 l-32 -30 0 119 c0 94 -3 122 -16 134 -21 21 -57 20
-77 -2z"/>
<path d="M3910 1115 l0 -145 -75 0 -75 0 0 -55 0 -55 75 0 75 0 0 -310 0 -310
64 0 64 0 246 286 246 285 0 80 0 79 -245 0 -245 0 0 145 0 145 -65 0 -65 0 0
-145z m514 -267 c-6 -10 -322 -382 -376 -442 -4 -6 -8 94 -8 222 l0 232 196 0
c153 0 194 -3 188 -12z"/>
</g>
</svg>
