<?xml version="1.0" standalone="no"?>
<!DOCTYPE svg PUBLIC "-//W3C//DTD SVG 20010904//EN"
 "http://www.w3.org/TR/2001/REC-SVG-20010904/DTD/svg10.dtd">
<svg version="1.0" xmlns="http://www.w3.org/2000/svg"
 width="500.000000pt" height="700.000000pt" viewBox="0 0 500.000000 700.000000"
 preserveAspectRatio="xMidYMid meet">
<metadata>
Created by potrace 1.16, written by Peter Selinger 2001-2019
</metadata>
<g transform="translate(0.000000,700.000000) scale(0.100000,-0.100000)"
fill="#000000" stroke="none">
<path d="M0 3500 l0 -3500 2500 0 2500 0 0 3500 0 3500 -2500 0 -2500 0 0
-3500z m4920 0 l0 -3420 -2420 0 -2420 0 0 3420 0 3420 2420 0 2420 0 0 -3420z"/>
<path d="M590 6500 l0 -260 48 8 c26 4 103 7 172 7 119 0 127 -1 173 -28 57
-34 86 -87 87 -158 1 -217 -220 -291 -478 -160 l-42 21 0 -74 0 -74 43 -16
c108 -40 238 -53 336 -32 167 35 265 145 278 311 8 103 -15 174 -76 235 -72
72 -136 93 -288 94 l-123 1 0 133 0 132 240 0 240 0 0 60 0 60 -305 0 -305 0
0 -260z"/>
<path d="M1489 5312 c-125 -65 -158 -234 -67 -338 l30 -34 -36 15 c-133 56
-296 -59 -296 -209 0 -46 21 -102 52 -141 84 -101 233 -107 327 -14 l41 41 0
-140 c0 -114 3 -143 16 -156 21 -22 50 -20 74 4 18 18 20 33 20 150 l0 131 37
-36 c44 -43 124 -69 180 -59 181 33 254 237 132 369 -63 68 -158 92 -237 60
l-37 -16 27 28 c73 76 78 201 11 290 -14 18 -48 43 -76 58 -69 34 -129 33
-198 -3z"/>
<path d="M3309 5312 c-125 -65 -158 -234 -67 -338 l30 -34 -36 15 c-133 56
-296 -59 -296 -209 0 -46 21 -102 52 -141 84 -101 233 -107 327 -14 l41 41 0
-140 c0 -114 3 -143 16 -156 21 -22 50 -20 74 4 18 18 20 33 20 150 l0 131 37
-36 c44 -43 124 -69 180 -59 181 33 254 237 132 369 -63 68 -158 92 -237 60
l-37 -16 27 28 c73 76 78 201 11 290 -14 18 -48 43 -76 58 -69 34 -129 33
-198 -3z"/>
<path d="M2399 3942 c-125 -65 -158 -234 -67 -338 l30 -34 -36 15 c-133 56
-296 -59 -296 -209 0 -46 21 -102 52 -141 84 -101 233 -107 327 -14 l41 41 0
-140 c0 -114 3 -143 16 -156 21 -22 50 -20 74 4 18 18 20 33 20 150 l0 131 37
-36 c44 -43 124 -69 180 -59 181 33 254 237 132 369 -63 68 -158 92 -237 60
l-37 -16 27 28 c73 76 78 201 11 290 -14 18 -48 43 -76 58 -69 34 -129 33
-198 -3z"/>
<path d="M1549 2663 c-10 -11 -15 -54 -17 -145 l-4 -128 -39 33 c-146 126
-363 25 -363 -168 0 -109 68 -191 177 -215 42 -9 61 -8 101 4 l49 15 -26 -27
c-57 -59 -73 -161 -38 -238 10 -22 37 -57 61 -77 112 -95 280 -57 344 78 27
57 19 159 -17 214 l-28 42 28 -8 c105 -30 226 29 267 129 64 152 -70 326 -233
304 -51 -7 -123 -46 -146 -78 -14 -21 -15 -13 -15 108 0 101 -3 134 -16 152
-18 26 -65 30 -85 5z"/>
<path d="M3367 2662 c-14 -15 -17 -42 -17 -151 l0 -133 -28 29 c-45 49 -89 67
-162 67 -71 0 -107 -14 -154 -61 -84 -83 -88 -223 -8 -306 55 -59 149 -85 225
-64 l28 8 -28 -42 c-32 -48 -43 -144 -24 -202 32 -96 153 -161 256 -138 64 14
130 68 156 125 35 77 19 179 -38 238 l-26 27 49 -15 c62 -19 135 -6 193 36
113 82 116 257 6 348 -89 73 -208 68 -292 -14 l-43 -41 0 138 c0 112 -3 141
-16 153 -21 21 -57 20 -77 -2z"/>
<path d="M4080 1269 c-131 -22 -234 -109 -270 -226 -55 -179 10 -333 166 -393
49 -20 79 -23 181 -24 l123 -1 0 -132 0 -133 -240 0 -240 0 0 -60 0 -60 305 0
305 0 0 260 0 260 -47 -8 c-27 -4 -104 -7 -173 -7 -119 0 -127 1 -173 28 -80
47 -108 145 -72 248 52 147 248 178 458 72 l47 -23 0 74 0 74 -42 16 c-96 35
-239 51 -328 35z"/>
</g>
</svg>
