<?xml version="1.0" standalone="no"?>
<!DOCTYPE svg PUBLIC "-//W3C//DTD SVG 20010904//EN"
 "http://www.w3.org/TR/2001/REC-SVG-20010904/DTD/svg10.dtd">
<svg version="1.0" xmlns="http://www.w3.org/2000/svg"
 width="500.000000pt" height="700.000000pt" viewBox="0 0 500.000000 700.000000"
 preserveAspectRatio="xMidYMid meet">
<metadata>
Created by potrace 1.16, written by Peter Selinger 2001-2019
</metadata>
<g transform="translate(0.000000,700.000000) scale(0.100000,-0.100000)"
fill="#000000" stroke="none">
<path d="M0 3500 l0 -3500 2500 0 2500 0 0 3500 0 3500 -2500 0 -2500 0 0
-3500z m4920 0 l0 -3420 -2420 0 -2420 0 0 3420 0 3420 2420 0 2420 0 0 -3420z"/>
<path d="M590 6500 l0 -260 48 8 c26 4 103 7 172 7 119 0 127 -1 173 -28 57
-34 86 -87 87 -158 1 -217 -220 -291 -478 -160 l-42 21 0 -74 0 -74 43 -16
c108 -40 238 -53 336 -32 167 35 265 145 278 311 8 103 -15 174 -76 235 -72
72 -136 93 -288 94 l-123 1 0 133 0 132 240 0 240 0 0 60 0 60 -305 0 -305 0
0 -260z"/>
<path d="M1402 5115 l-182 -245 182 -245 c101 -134 185 -244 188 -244 3 0 87
110 188 244 l182 245 -182 245 c-101 134 -185 244 -188 244 -3 0 -87 -110
-188 -244z"/>
<path d="M3222 5115 l-182 -245 182 -245 c101 -134 185 -244 188 -244 3 0 87
110 188 244 l182 245 -182 245 c-101 134 -185 244 -188 244 -3 0 -87 -110
-188 -244z"/>
<path d="M2312 3745 l-182 -245 182 -245 c101 -134 185 -244 188 -244 3 0 87
110 188 244 l182 245 -182 245 c-101 134 -185 244 -188 244 -3 0 -87 -110
-188 -244z"/>
<path d="M1403 2376 l-182 -244 185 -247 185 -247 185 247 c114 151 182 250
177 258 -21 36 -356 477 -362 477 -3 -1 -88 -110 -188 -244z"/>
<path d="M3228 2388 c-96 -128 -177 -238 -181 -245 -5 -8 63 -107 177 -258
l185 -246 184 247 185 247 -181 243 c-100 134 -185 243 -188 244 -4 0 -85
-105 -181 -232z"/>
<path d="M4080 1269 c-131 -22 -234 -109 -270 -226 -55 -179 10 -333 166 -393
49 -20 79 -23 181 -24 l123 -1 0 -132 0 -133 -240 0 -240 0 0 -60 0 -60 305 0
305 0 0 260 0 260 -47 -8 c-27 -4 -104 -7 -173 -7 -119 0 -127 1 -173 28 -80
47 -108 145 -72 248 52 147 248 178 458 72 l47 -23 0 74 0 74 -42 16 c-96 35
-239 51 -328 35z"/>
</g>
</svg>
