<?xml version="1.0" standalone="no"?>
<!DOCTYPE svg PUBLIC "-//W3C//DTD SVG 20010904//EN"
 "http://www.w3.org/TR/2001/REC-SVG-20010904/DTD/svg10.dtd">
<svg version="1.0" xmlns="http://www.w3.org/2000/svg"
 width="500.000000pt" height="700.000000pt" viewBox="0 0 500.000000 700.000000"
 preserveAspectRatio="xMidYMid meet">
<metadata>
Created by potrace 1.16, written by Peter Selinger 2001-2019
</metadata>
<g transform="translate(0.000000,700.000000) scale(0.100000,-0.100000)"
fill="#000000" stroke="none">
<path d="M0 3500 l0 -3500 2500 0 2500 0 0 3500 0 3500 -2500 0 -2500 0 0
-3500z m4920 0 l0 -3420 -2420 0 -2420 0 0 3420 0 3420 2420 0 2420 0 0 -3420z"/>
<path d="M861 6764 c-164 -44 -276 -169 -327 -364 -22 -82 -25 -301 -5 -380
32 -129 101 -220 205 -266 51 -23 75 -27 146 -27 72 0 95 4 145 27 72 33 137
93 173 161 25 45 27 60 27 160 0 100 -2 115 -27 161 -46 88 -123 138 -236 154
-84 12 -175 -1 -251 -36 -29 -13 -55 -24 -56 -24 -2 0 3 28 11 62 29 125 107
221 206 254 51 17 200 16 241 -1 15 -6 17 0 17 58 0 59 -2 65 -22 71 -42 11
-192 5 -247 -10z m116 -499 c85 -36 116 -94 111 -209 -7 -145 -61 -207 -189
-214 -156 -9 -234 82 -246 289 l-6 95 49 21 c67 28 77 31 167 32 50 1 91 -5
114 -14z"/>
<path d="M1489 5312 c-125 -65 -158 -234 -67 -338 l30 -34 -36 15 c-133 56
-296 -59 -296 -209 0 -46 21 -102 52 -141 84 -101 233 -107 327 -14 l41 41 0
-140 c0 -114 3 -143 16 -156 21 -22 50 -20 74 4 18 18 20 33 20 150 l0 131 37
-36 c44 -43 124 -69 180 -59 181 33 254 237 132 369 -63 68 -158 92 -237 60
l-37 -16 27 28 c73 76 78 201 11 290 -14 18 -48 43 -76 58 -69 34 -129 33
-198 -3z"/>
<path d="M3309 5312 c-125 -65 -158 -234 -67 -338 l30 -34 -36 15 c-133 56
-296 -59 -296 -209 0 -46 21 -102 52 -141 84 -101 233 -107 327 -14 l41 41 0
-140 c0 -114 3 -143 16 -156 21 -22 50 -20 74 4 18 18 20 33 20 150 l0 131 37
-36 c44 -43 124 -69 180 -59 181 33 254 237 132 369 -63 68 -158 92 -237 60
l-37 -16 27 28 c73 76 78 201 11 290 -14 18 -48 43 -76 58 -69 34 -129 33
-198 -3z"/>
<path d="M1489 3942 c-125 -65 -158 -234 -67 -338 l30 -34 -36 15 c-133 56
-296 -59 -296 -209 0 -46 21 -102 52 -141 84 -101 233 -107 327 -14 l41 41 0
-140 c0 -114 3 -143 16 -156 21 -22 50 -20 74 4 18 18 20 33 20 150 l0 131 37
-36 c44 -43 124 -69 180 -59 181 33 254 237 132 369 -63 68 -158 92 -237 60
l-37 -16 27 28 c73 76 78 201 11 290 -14 18 -48 43 -76 58 -69 34 -129 33
-198 -3z"/>
<path d="M3309 3942 c-125 -65 -158 -234 -67 -338 l30 -34 -36 15 c-133 56
-296 -59 -296 -209 0 -46 21 -102 52 -141 84 -101 233 -107 327 -14 l41 41 0
-140 c0 -114 3 -143 16 -156 21 -22 50 -20 74 4 18 18 20 33 20 150 l0 131 37
-36 c44 -43 124 -69 180 -59 181 33 254 237 132 369 -63 68 -158 92 -237 60
l-37 -16 27 28 c73 76 78 201 11 290 -14 18 -48 43 -76 58 -69 34 -129 33
-198 -3z"/>
<path d="M1549 2663 c-10 -11 -15 -54 -17 -145 l-4 -128 -39 33 c-146 126
-363 25 -363 -168 0 -109 68 -191 177 -215 42 -9 61 -8 101 4 l49 15 -26 -27
c-57 -59 -73 -161 -38 -238 10 -22 37 -57 61 -77 112 -95 280 -57 344 78 27
57 19 159 -17 214 l-28 42 28 -8 c105 -30 226 29 267 129 64 152 -70 326 -233
304 -51 -7 -123 -46 -146 -78 -14 -21 -15 -13 -15 108 0 101 -3 134 -16 152
-18 26 -65 30 -85 5z"/>
<path d="M3367 2662 c-14 -15 -17 -42 -17 -151 l0 -133 -28 29 c-45 49 -89 67
-162 67 -71 0 -107 -14 -154 -61 -84 -83 -88 -223 -8 -306 55 -59 149 -85 225
-64 l28 8 -28 -42 c-32 -48 -43 -144 -24 -202 32 -96 153 -161 256 -138 64 14
130 68 156 125 35 77 19 179 -38 238 l-26 27 49 -15 c62 -19 135 -6 193 36
113 82 116 257 6 348 -89 73 -208 68 -292 -14 l-43 -41 0 138 c0 112 -3 141
-16 153 -21 21 -57 20 -77 -2z"/>
<path d="M4040 1267 c-105 -23 -199 -99 -244 -196 -17 -38 -21 -65 -21 -151 0
-98 2 -109 29 -158 49 -88 123 -136 234 -152 84 -12 175 1 251 36 29 13 55 24
56 24 1 0 -1 -21 -6 -47 -20 -106 -84 -202 -168 -251 -42 -24 -55 -27 -146
-27 -55 0 -112 3 -127 8 l-28 7 0 -64 c0 -76 -1 -76 119 -76 153 0 262 42 350
135 101 107 143 234 145 440 1 141 -11 208 -51 290 -69 142 -233 217 -393 182z
m181 -130 c83 -44 129 -149 129 -293 l0 -72 -52 -23 c-62 -27 -199 -38 -258
-20 -87 26 -130 92 -130 199 0 113 30 175 102 211 60 30 150 29 209 -2z"/>
</g>
</svg>
