<?xml version="1.0" standalone="no"?>
<!DOCTYPE svg PUBLIC "-//W3C//DTD SVG 20010904//EN"
 "http://www.w3.org/TR/2001/REC-SVG-20010904/DTD/svg10.dtd">
<svg version="1.0" xmlns="http://www.w3.org/2000/svg"
 width="500.000000pt" height="700.000000pt" viewBox="0 0 500.000000 700.000000"
 preserveAspectRatio="xMidYMid meet">
<metadata>
Created by potrace 1.16, written by Peter Selinger 2001-2019
</metadata>
<g transform="translate(0.000000,700.000000) scale(0.100000,-0.100000)"
fill="#000000" stroke="none">
<path d="M0 3500 l0 -3500 2500 0 2500 0 0 3500 0 3500 -2500 0 -2500 0 0
-3500z m4920 0 l0 -3420 -2420 0 -2420 0 0 3420 0 3420 2420 0 2420 0 0 -3420z"/>
<path d="M861 6764 c-164 -44 -276 -169 -327 -364 -22 -82 -25 -301 -5 -380
32 -129 101 -220 205 -266 51 -23 75 -27 146 -27 72 0 95 4 145 27 72 33 137
93 173 161 25 45 27 60 27 160 0 100 -2 115 -27 161 -46 88 -123 138 -236 154
-84 12 -175 -1 -251 -36 -29 -13 -55 -24 -56 -24 -2 0 3 28 11 62 29 125 107
221 206 254 51 17 200 16 241 -1 15 -6 17 0 17 58 0 59 -2 65 -22 71 -42 11
-192 5 -247 -10z m116 -499 c85 -36 116 -94 111 -209 -7 -145 -61 -207 -189
-214 -156 -9 -234 82 -246 289 l-6 95 49 21 c67 28 77 31 167 32 50 1 91 -5
114 -14z"/>
<path d="M1402 5115 l-182 -245 182 -245 c101 -134 185 -244 188 -244 3 0 87
110 188 244 l182 245 -182 245 c-101 134 -185 244 -188 244 -3 0 -87 -110
-188 -244z"/>
<path d="M3222 5115 l-182 -245 182 -245 c101 -134 185 -244 188 -244 3 0 87
110 188 244 l182 245 -182 245 c-101 134 -185 244 -188 244 -3 0 -87 -110
-188 -244z"/>
<path d="M1402 3745 l-182 -245 182 -245 c101 -134 185 -244 188 -244 3 0 87
110 188 244 l182 245 -182 245 c-101 134 -185 244 -188 244 -3 0 -87 -110
-188 -244z"/>
<path d="M3222 3745 l-182 -245 182 -245 c101 -134 185 -244 188 -244 3 0 87
110 188 244 l182 245 -182 245 c-101 134 -185 244 -188 244 -3 0 -87 -110
-188 -244z"/>
<path d="M1403 2376 l-182 -244 185 -247 185 -247 185 247 c114 151 182 250
177 258 -21 36 -356 477 -362 477 -3 -1 -88 -110 -188 -244z"/>
<path d="M3228 2388 c-96 -128 -177 -238 -181 -245 -5 -8 63 -107 177 -258
l185 -246 184 247 185 247 -181 243 c-100 134 -185 243 -188 244 -4 0 -85
-105 -181 -232z"/>
<path d="M4040 1267 c-105 -23 -199 -99 -244 -196 -17 -38 -21 -65 -21 -151 0
-98 2 -109 29 -158 49 -88 123 -136 234 -152 84 -12 175 1 251 36 29 13 55 24
56 24 1 0 -1 -21 -6 -47 -20 -106 -84 -202 -168 -251 -42 -24 -55 -27 -146
-27 -55 0 -112 3 -127 8 l-28 7 0 -64 c0 -76 -1 -76 119 -76 153 0 262 42 350
135 101 107 143 234 145 440 1 141 -11 208 -51 290 -69 142 -233 217 -393 182z
m181 -130 c83 -44 129 -149 129 -293 l0 -72 -52 -23 c-62 -27 -199 -38 -258
-20 -87 26 -130 92 -130 199 0 113 30 175 102 211 60 30 150 29 209 -2z"/>
</g>
</svg>
