<?xml version="1.0" standalone="no"?>
<!DOCTYPE svg PUBLIC "-//W3C//DTD SVG 20010904//EN"
 "http://www.w3.org/TR/2001/REC-SVG-20010904/DTD/svg10.dtd">
<svg version="1.0" xmlns="http://www.w3.org/2000/svg"
 width="500.000000pt" height="700.000000pt" viewBox="0 0 500.000000 700.000000"
 preserveAspectRatio="xMidYMid meet">
<metadata>
Created by potrace 1.16, written by Peter Selinger 2001-2019
</metadata>
<g transform="translate(0.000000,700.000000) scale(0.100000,-0.100000)"
fill="#000000" stroke="none">
<path d="M0 3500 l0 -3500 2500 0 2500 0 0 3500 0 3500 -2500 0 -2500 0 0
-3500z m4920 0 l0 -3420 -2420 0 -2420 0 0 3420 0 3420 2420 0 2420 0 0 -3420z"/>
<path d="M861 6764 c-164 -44 -276 -169 -327 -364 -22 -82 -25 -301 -5 -380
32 -129 101 -220 205 -266 51 -23 75 -27 146 -27 72 0 95 4 145 27 72 33 137
93 173 161 25 45 27 60 27 160 0 100 -2 115 -27 161 -46 88 -123 138 -236 154
-84 12 -175 -1 -251 -36 -29 -13 -55 -24 -56 -24 -2 0 3 28 11 62 29 125 107
221 206 254 51 17 200 16 241 -1 15 -6 17 0 17 58 0 59 -2 65 -22 71 -42 11
-192 5 -247 -10z m116 -499 c85 -36 116 -94 111 -209 -7 -145 -61 -207 -189
-214 -156 -9 -234 82 -246 289 l-6 95 49 21 c67 28 77 31 167 32 50 1 91 -5
114 -14z"/>
<path d="M1235 5336 c-89 -42 -134 -117 -135 -221 0 -79 9 -95 205 -356 88
-118 187 -251 220 -296 33 -45 62 -82 65 -82 3 0 32 37 65 82 33 45 132 178
220 296 195 260 205 277 205 353 0 144 -101 248 -243 248 -69 0 -120 -19 -165
-63 -36 -34 -72 -96 -72 -122 0 -8 -4 -15 -10 -15 -5 0 -10 7 -10 15 0 26 -36
88 -72 122 -70 67 -180 83 -273 39z"/>
<path d="M3055 5336 c-89 -42 -134 -117 -135 -221 0 -79 9 -95 205 -356 88
-118 187 -251 220 -296 33 -45 62 -82 65 -82 3 0 32 37 65 82 33 45 132 178
220 296 195 260 205 277 205 353 0 144 -101 248 -243 248 -69 0 -120 -19 -165
-63 -36 -34 -72 -96 -72 -122 0 -8 -4 -15 -10 -15 -5 0 -10 7 -10 15 0 26 -36
88 -72 122 -70 67 -180 83 -273 39z"/>
<path d="M1235 3966 c-89 -42 -134 -117 -135 -221 0 -79 9 -95 205 -356 88
-118 187 -251 220 -296 33 -45 62 -82 65 -82 3 0 32 37 65 82 33 45 132 178
220 296 195 260 205 277 205 353 0 144 -101 248 -243 248 -69 0 -120 -19 -165
-63 -36 -34 -72 -96 -72 -122 0 -8 -4 -15 -10 -15 -5 0 -10 7 -10 15 0 26 -36
88 -72 122 -70 67 -180 83 -273 39z"/>
<path d="M3055 3966 c-89 -42 -134 -117 -135 -221 0 -79 9 -95 205 -356 88
-118 187 -251 220 -296 33 -45 62 -82 65 -82 3 0 32 37 65 82 33 45 132 178
220 296 195 260 205 277 205 353 0 144 -101 248 -243 248 -69 0 -120 -19 -165
-63 -36 -34 -72 -96 -72 -122 0 -8 -4 -15 -10 -15 -5 0 -10 7 -10 15 0 26 -36
88 -72 122 -70 67 -180 83 -273 39z"/>
<path d="M1400 2367 c-102 -138 -205 -276 -229 -307 -69 -85 -87 -160 -59
-254 16 -55 99 -138 154 -154 129 -38 254 21 305 143 l23 56 13 -43 c27 -94
129 -168 227 -168 100 1 174 45 220 130 51 94 35 209 -43 295 -15 17 -115 148
-221 293 -107 144 -197 262 -200 262 -3 0 -88 -114 -190 -253z"/>
<path d="M3210 2358 c-107 -145 -209 -280 -227 -300 -119 -136 -70 -345 94
-404 128 -45 279 28 316 154 l13 43 23 -56 c51 -122 176 -181 305 -143 55 16
138 99 154 154 28 94 10 169 -59 254 -24 31 -127 169 -229 307 -102 139 -188
253 -191 253 -3 0 -93 -118 -199 -262z"/>
<path d="M4040 1267 c-105 -23 -199 -99 -244 -196 -17 -38 -21 -65 -21 -151 0
-98 2 -109 29 -158 49 -88 123 -136 234 -152 84 -12 175 1 251 36 29 13 55 24
56 24 1 0 -1 -21 -6 -47 -20 -106 -84 -202 -168 -251 -42 -24 -55 -27 -146
-27 -55 0 -112 3 -127 8 l-28 7 0 -64 c0 -76 -1 -76 119 -76 153 0 262 42 350
135 101 107 143 234 145 440 1 141 -11 208 -51 290 -69 142 -233 217 -393 182z
m181 -130 c83 -44 129 -149 129 -293 l0 -72 -52 -23 c-62 -27 -199 -38 -258
-20 -87 26 -130 92 -130 199 0 113 30 175 102 211 60 30 150 29 209 -2z"/>
</g>
</svg>
