<?xml version="1.0" standalone="no"?>
<!DOCTYPE svg PUBLIC "-//W3C//DTD SVG 20010904//EN"
 "http://www.w3.org/TR/2001/REC-SVG-20010904/DTD/svg10.dtd">
<svg version="1.0" xmlns="http://www.w3.org/2000/svg"
 width="500.000000pt" height="700.000000pt" viewBox="0 0 500.000000 700.000000"
 preserveAspectRatio="xMidYMid meet">
<metadata>
Created by potrace 1.16, written by Peter Selinger 2001-2019
</metadata>
<g transform="translate(0.000000,700.000000) scale(0.100000,-0.100000)"
fill="#000000" stroke="none">
<path d="M0 3500 l0 -3500 2500 0 2500 0 0 3500 0 3500 -2500 0 -2500 0 0
-3500z m4920 0 l0 -3420 -2420 0 -2420 0 0 3420 0 3420 2420 0 2420 0 0 -3420z"/>
<path d="M861 6764 c-164 -44 -276 -169 -327 -364 -22 -82 -25 -301 -5 -380
32 -129 101 -220 205 -266 51 -23 75 -27 146 -27 72 0 95 4 145 27 72 33 137
93 173 161 25 45 27 60 27 160 0 100 -2 115 -27 161 -46 88 -123 138 -236 154
-84 12 -175 -1 -251 -36 -29 -13 -55 -24 -56 -24 -2 0 3 28 11 62 29 125 107
221 206 254 51 17 200 16 241 -1 15 -6 17 0 17 58 0 59 -2 65 -22 71 -42 11
-192 5 -247 -10z m116 -499 c85 -36 116 -94 111 -209 -7 -145 -61 -207 -189
-214 -156 -9 -234 82 -246 289 l-6 95 49 21 c67 28 77 31 167 32 50 1 91 -5
114 -14z"/>
<path d="M1540 5313 c-24 -26 -124 -132 -222 -236 -110 -115 -187 -204 -198
-230 -26 -55 -26 -148 -1 -203 69 -151 274 -191 394 -77 l27 27 0 -121 c0 -97
3 -125 16 -137 21 -22 50 -20 74 4 18 18 20 33 20 131 l0 111 30 -25 c69 -58
190 -73 267 -33 44 22 93 74 114 121 25 53 24 147 0 201 -12 26 -105 132 -240
275 -122 129 -226 235 -230 237 -4 1 -27 -19 -51 -45z"/>
<path d="M3360 5313 c-24 -26 -124 -132 -222 -236 -110 -115 -187 -204 -198
-230 -26 -55 -26 -148 -1 -203 69 -151 274 -191 394 -77 l27 27 0 -121 c0 -97
3 -125 16 -137 21 -22 50 -20 74 4 18 18 20 33 20 131 l0 111 30 -25 c69 -58
190 -73 267 -33 44 22 93 74 114 121 25 53 24 147 0 201 -12 26 -105 132 -240
275 -122 129 -226 235 -230 237 -4 1 -27 -19 -51 -45z"/>
<path d="M1540 3943 c-24 -26 -124 -132 -222 -236 -110 -115 -187 -204 -198
-230 -26 -55 -26 -148 -1 -203 69 -151 274 -191 394 -77 l27 27 0 -121 c0 -97
3 -125 16 -137 21 -22 50 -20 74 4 18 18 20 33 20 131 l0 111 30 -25 c69 -58
190 -73 267 -33 44 22 93 74 114 121 25 53 24 147 0 201 -12 26 -105 132 -240
275 -122 129 -226 235 -230 237 -4 1 -27 -19 -51 -45z"/>
<path d="M3360 3943 c-24 -26 -124 -132 -222 -236 -110 -115 -187 -204 -198
-230 -26 -55 -26 -148 -1 -203 69 -151 274 -191 394 -77 l27 27 0 -121 c0 -97
3 -125 16 -137 21 -22 50 -20 74 4 18 18 20 33 20 131 l0 111 30 -25 c69 -58
190 -73 267 -33 44 22 93 74 114 121 25 53 24 147 0 201 -12 26 -105 132 -240
275 -122 129 -226 235 -230 237 -4 1 -27 -19 -51 -45z"/>
<path d="M1549 2663 c-9 -10 -16 -54 -19 -124 l-5 -108 -44 29 c-113 77 -274
42 -346 -74 -24 -40 -30 -62 -33 -120 -3 -60 0 -78 20 -113 13 -24 124 -149
247 -279 l225 -237 35 39 c19 21 119 127 222 235 103 108 197 216 210 240 27
52 30 145 7 199 -38 88 -129 150 -223 150 -68 0 -112 -14 -157 -50 l-38 -31 0
108 c0 82 -4 114 -16 131 -18 26 -65 30 -85 5z"/>
<path d="M3367 2662 c-14 -15 -17 -40 -17 -131 l0 -112 -38 31 c-123 99 -317
48 -380 -100 -23 -54 -20 -147 7 -199 13 -24 107 -132 210 -240 103 -108 203
-214 222 -235 l35 -39 225 237 c123 130 234 255 247 279 34 63 28 166 -13 233
-79 126 -264 154 -373 55 l-32 -30 0 119 c0 94 -3 122 -16 134 -21 21 -57 20
-77 -2z"/>
<path d="M4040 1267 c-105 -23 -199 -99 -244 -196 -17 -38 -21 -65 -21 -151 0
-98 2 -109 29 -158 49 -88 123 -136 234 -152 84 -12 175 1 251 36 29 13 55 24
56 24 1 0 -1 -21 -6 -47 -20 -106 -84 -202 -168 -251 -42 -24 -55 -27 -146
-27 -55 0 -112 3 -127 8 l-28 7 0 -64 c0 -76 -1 -76 119 -76 153 0 262 42 350
135 101 107 143 234 145 440 1 141 -11 208 -51 290 -69 142 -233 217 -393 182z
m181 -130 c83 -44 129 -149 129 -293 l0 -72 -52 -23 c-62 -27 -199 -38 -258
-20 -87 26 -130 92 -130 199 0 113 30 175 102 211 60 30 150 29 209 -2z"/>
</g>
</svg>
