<?xml version="1.0" standalone="no"?>
<!DOCTYPE svg PUBLIC "-//W3C//DTD SVG 20010904//EN"
 "http://www.w3.org/TR/2001/REC-SVG-20010904/DTD/svg10.dtd">
<svg version="1.0" xmlns="http://www.w3.org/2000/svg"
 width="500.000000pt" height="700.000000pt" viewBox="0 0 500.000000 700.000000"
 preserveAspectRatio="xMidYMid meet">
<metadata>
Created by potrace 1.16, written by Peter Selinger 2001-2019
</metadata>
<g transform="translate(0.000000,700.000000) scale(0.100000,-0.100000)"
fill="#000000" stroke="none">
<path d="M0 3500 l0 -3500 2500 0 2500 0 0 3500 0 3500 -2500 0 -2500 0 0
-3500z m4920 0 l0 -3420 -2420 0 -2420 0 0 3420 0 3420 2420 0 2420 0 0 -3420z"/>
<path d="M522 6703 l3 -58 287 -5 287 -5 -210 -385 c-209 -381 -269 -494 -269
-505 0 -3 31 -5 69 -5 l69 0 107 203 c60 111 164 306 232 434 l123 232 0 76 0
75 -350 0 -351 0 3 -57z"/>
<path d="M1512 5219 c-63 -32 -96 -92 -90 -168 3 -37 11 -68 25 -87 l22 -30
-59 4 c-50 4 -66 0 -104 -22 -122 -72 -110 -256 21 -312 68 -29 170 -6 207 48
14 20 16 13 18 -92 3 -101 5 -114 23 -126 18 -12 24 -11 43 2 20 14 22 23 22
127 0 104 1 110 16 89 37 -54 151 -80 212 -48 92 48 126 150 81 243 -31 64
-91 97 -169 91 l-59 -4 22 30 c14 19 22 50 25 87 4 49 0 65 -22 103 -47 80
-147 108 -234 65z"/>
<path d="M3322 5219 c-63 -32 -96 -92 -90 -168 3 -37 11 -68 25 -87 l22 -30
-59 4 c-50 4 -66 0 -104 -22 -122 -72 -110 -256 21 -312 68 -29 170 -6 207 48
14 20 16 13 18 -92 3 -101 5 -114 23 -126 18 -12 24 -11 43 2 20 14 22 23 22
127 0 104 1 110 16 89 37 -54 151 -80 212 -48 92 48 126 150 81 243 -31 64
-91 97 -169 91 l-59 -4 22 30 c14 19 22 50 25 87 4 49 0 65 -22 103 -47 80
-147 108 -234 65z"/>
<path d="M2412 4539 c-63 -32 -96 -92 -90 -168 3 -37 11 -68 25 -87 l22 -30
-59 4 c-50 4 -66 0 -104 -22 -122 -72 -110 -256 21 -312 68 -29 170 -6 207 48
14 20 16 13 18 -92 3 -101 5 -114 23 -126 18 -12 24 -11 43 2 20 14 22 23 22
127 0 104 1 110 16 89 37 -54 151 -80 212 -48 92 48 126 150 81 243 -31 64
-91 97 -169 91 l-59 -4 22 30 c14 19 22 50 25 87 4 49 0 65 -22 103 -47 80
-147 108 -234 65z"/>
<path d="M1512 3859 c-63 -32 -96 -92 -90 -168 3 -37 11 -68 25 -87 l22 -30
-59 4 c-50 4 -66 0 -104 -22 -122 -72 -110 -256 21 -312 68 -29 170 -6 207 48
14 20 16 13 18 -92 3 -101 5 -114 23 -126 18 -12 24 -11 43 2 20 14 22 23 22
127 0 104 1 110 16 89 37 -54 151 -80 212 -48 92 48 126 150 81 243 -31 64
-91 97 -169 91 l-59 -4 22 30 c14 19 22 50 25 87 4 49 0 65 -22 103 -47 80
-147 108 -234 65z"/>
<path d="M3322 3859 c-63 -32 -96 -92 -90 -168 3 -37 11 -68 25 -87 l22 -30
-59 4 c-50 4 -66 0 -104 -22 -122 -72 -110 -256 21 -312 68 -29 170 -6 207 48
14 20 16 13 18 -92 3 -101 5 -114 23 -126 18 -12 24 -11 43 2 20 14 22 23 22
127 0 104 1 110 16 89 37 -54 151 -80 212 -48 92 48 126 150 81 243 -31 64
-91 97 -169 91 l-59 -4 22 30 c14 19 22 50 25 87 4 49 0 65 -22 103 -47 80
-147 108 -234 65z"/>
<path d="M1556 2564 c-13 -12 -16 -38 -16 -122 l0 -106 -27 26 c-42 38 -66 48
-123 48 -172 0 -243 -211 -105 -315 41 -32 127 -45 163 -26 21 11 20 9 -3 -25
-32 -47 -39 -74 -32 -130 14 -132 184 -199 283 -112 47 41 66 82 66 138 0 50
-12 81 -46 118 l-21 23 28 -10 c76 -29 171 4 212 73 30 51 33 121 9 173 -48
99 -197 126 -279 49 l-35 -33 0 108 c0 110 -9 139 -45 139 -7 0 -21 -7 -29
-16z"/>
<path d="M3388 2569 c-16 -9 -18 -26 -18 -123 l0 -113 -35 33 c-82 77 -231 50
-279 -49 -24 -52 -21 -122 9 -173 41 -69 136 -102 212 -73 l28 10 -21 -23
c-34 -37 -46 -68 -46 -118 0 -56 19 -97 66 -138 99 -87 269 -20 283 112 7 56
0 83 -32 130 -23 34 -24 36 -3 25 36 -19 122 -6 163 26 138 104 67 315 -105
315 -57 0 -81 -10 -122 -48 l-28 -26 0 106 c0 89 -3 107 -18 121 -21 19 -30
20 -54 6z"/>
<path d="M4132 1053 c-60 -115 -164 -310 -231 -436 l-121 -227 0 -75 0 -75
350 0 351 0 -3 57 -3 58 -287 5 -287 5 240 438 c131 241 239 443 239 448 0 5
-31 9 -69 9 l-69 0 -110 -207z"/>
</g>
</svg>
