<?xml version="1.0" standalone="no"?>
<!DOCTYPE svg PUBLIC "-//W3C//DTD SVG 20010904//EN"
 "http://www.w3.org/TR/2001/REC-SVG-20010904/DTD/svg10.dtd">
<svg version="1.0" xmlns="http://www.w3.org/2000/svg"
 width="500.000000pt" height="700.000000pt" viewBox="0 0 500.000000 700.000000"
 preserveAspectRatio="xMidYMid meet">
<metadata>
Created by potrace 1.16, written by Peter Selinger 2001-2019
</metadata>
<g transform="translate(0.000000,700.000000) scale(0.100000,-0.100000)"
fill="#000000" stroke="none">
<path d="M0 3500 l0 -3500 2500 0 2500 0 0 3500 0 3500 -2500 0 -2500 0 0
-3500z m4920 0 l0 -3420 -2420 0 -2420 0 0 3420 0 3420 2420 0 2420 0 0 -3420z"/>
<path d="M522 6703 l3 -58 287 -5 287 -5 -210 -385 c-209 -381 -269 -494 -269
-505 0 -3 31 -5 69 -5 l69 0 107 203 c60 111 164 306 232 434 l123 232 0 76 0
75 -350 0 -351 0 3 -57z"/>
<path d="M1455 5073 c-77 -102 -143 -191 -147 -198 -5 -8 49 -88 138 -206 80
-107 147 -194 149 -194 12 0 293 390 288 399 -7 11 -271 366 -282 378 -4 4
-70 -76 -146 -179z"/>
<path d="M3265 5073 c-77 -102 -143 -191 -147 -198 -5 -8 49 -88 138 -206 80
-107 147 -194 149 -194 12 0 293 390 288 399 -7 11 -271 366 -282 378 -4 4
-70 -76 -146 -179z"/>
<path d="M2355 4393 c-77 -102 -143 -191 -147 -198 -5 -8 49 -88 138 -206 80
-107 147 -194 149 -194 12 0 293 390 288 399 -7 11 -271 366 -282 378 -4 4
-70 -76 -146 -179z"/>
<path d="M1455 3713 c-77 -102 -143 -191 -147 -198 -5 -8 49 -88 138 -206 80
-107 147 -194 149 -194 12 0 293 390 288 399 -7 11 -271 366 -282 378 -4 4
-70 -76 -146 -179z"/>
<path d="M3265 3713 c-77 -102 -143 -191 -147 -198 -5 -8 49 -88 138 -206 80
-107 147 -194 149 -194 12 0 293 390 288 399 -7 11 -271 366 -282 378 -4 4
-70 -76 -146 -179z"/>
<path d="M1445 2344 c-77 -103 -143 -192 -147 -198 -3 -6 59 -99 141 -208
l147 -197 140 186 c76 102 143 192 147 200 6 10 -34 71 -137 209 -81 107 -147
194 -149 194 -1 0 -65 -84 -142 -186z"/>
<path d="M3265 2336 c-104 -137 -144 -199 -138 -209 4 -8 71 -98 147 -200
l139 -186 125 167 c69 92 136 181 149 198 l23 31 -145 193 c-80 106 -147 195
-149 197 -3 3 -70 -83 -151 -191z"/>
<path d="M4132 1053 c-60 -115 -164 -310 -231 -436 l-121 -227 0 -75 0 -75
350 0 351 0 -3 57 -3 58 -287 5 -287 5 240 438 c131 241 239 443 239 448 0 5
-31 9 -69 9 l-69 0 -110 -207z"/>
</g>
</svg>
