<?xml version="1.0" standalone="no"?>
<!DOCTYPE svg PUBLIC "-//W3C//DTD SVG 20010904//EN"
 "http://www.w3.org/TR/2001/REC-SVG-20010904/DTD/svg10.dtd">
<svg version="1.0" xmlns="http://www.w3.org/2000/svg"
 width="500.000000pt" height="700.000000pt" viewBox="0 0 500.000000 700.000000"
 preserveAspectRatio="xMidYMid meet">
<metadata>
Created by potrace 1.16, written by Peter Selinger 2001-2019
</metadata>
<g transform="translate(0.000000,700.000000) scale(0.100000,-0.100000)"
fill="#000000" stroke="none">
<path d="M0 3500 l0 -3500 2500 0 2500 0 0 3500 0 3500 -2500 0 -2500 0 0
-3500z m4920 0 l0 -3420 -2420 0 -2420 0 0 3420 0 3420 2420 0 2420 0 0 -3420z"/>
<path d="M522 6703 l3 -58 287 -5 287 -5 -210 -385 c-209 -381 -269 -494 -269
-505 0 -3 31 -5 69 -5 l69 0 107 203 c60 111 164 306 232 434 l123 232 0 76 0
75 -350 0 -351 0 3 -57z"/>
<path d="M1315 5241 c-115 -53 -153 -204 -74 -296 9 -11 92 -121 184 -245 91
-124 168 -225 170 -225 3 0 79 101 171 225 91 124 174 234 183 245 43 50 53
127 26 193 -71 169 -317 157 -369 -19 l-13 -43 -7 37 c-9 46 -66 112 -114 133
-47 19 -109 17 -157 -5z"/>
<path d="M3125 5241 c-115 -53 -153 -204 -74 -296 9 -11 92 -121 184 -245 91
-124 168 -225 170 -225 3 0 79 101 171 225 91 124 174 234 183 245 43 50 53
127 26 193 -71 169 -317 157 -369 -19 l-13 -43 -7 37 c-9 46 -66 112 -114 133
-47 19 -109 17 -157 -5z"/>
<path d="M2220 4564 c-72 -31 -80 -47 -80 -151 0 -75 -3 -93 -15 -93 -17 0
-10 -26 16 -55 9 -11 92 -121 184 -245 91 -124 168 -225 170 -225 3 0 79 101
171 225 91 124 174 234 183 245 22 25 33 55 21 55 -6 0 -10 38 -10 88 0 83 -2
90 -27 115 -107 102 -286 56 -327 -84 l-13 -43 -7 37 c-9 46 -66 112 -114 133
-44 18 -107 17 -152 -2z"/>
<path d="M1315 3881 c-115 -53 -153 -204 -74 -296 9 -11 92 -121 184 -245 91
-124 168 -225 170 -225 3 0 79 101 171 225 91 124 174 234 183 245 26 29 33
55 16 55 -12 0 -15 18 -15 93 0 84 -2 96 -23 115 -103 97 -281 48 -321 -89
l-13 -43 -7 37 c-9 46 -66 112 -114 133 -47 19 -109 17 -157 -5z"/>
<path d="M3130 3884 c-19 -8 -47 -27 -62 -41 -26 -25 -28 -32 -28 -115 0 -50
-4 -88 -10 -88 -13 0 -1 -30 21 -55 9 -11 92 -121 184 -245 91 -124 168 -225
170 -225 3 0 79 101 171 225 91 124 174 234 183 245 43 50 53 127 26 193 -71
169 -317 157 -369 -19 l-13 -43 -7 37 c-9 46 -66 112 -114 133 -44 18 -107 17
-152 -2z"/>
<path d="M1405 2289 c-99 -133 -188 -257 -197 -278 -29 -60 -19 -132 26 -194
23 -32 109 -77 145 -77 96 0 200 84 201 162 1 15 7 6 20 -27 49 -126 193 -171
300 -94 77 56 102 164 58 246 -19 33 -365 503 -371 503 -1 0 -83 -108 -182
-241z"/>
<path d="M3354 2454 c-32 -44 -110 -148 -174 -233 -63 -84 -125 -172 -137
-194 -46 -84 -21 -189 58 -247 106 -76 251 -31 299 95 13 33 19 42 20 27 1
-78 105 -162 201 -162 36 0 122 45 145 77 43 59 54 129 30 187 -11 26 -335
474 -377 520 -4 4 -33 -27 -65 -70z"/>
<path d="M4132 1053 c-60 -115 -164 -310 -231 -436 l-121 -227 0 -75 0 -75
350 0 351 0 -3 57 -3 58 -287 5 -287 5 240 438 c131 241 239 443 239 448 0 5
-31 9 -69 9 l-69 0 -110 -207z"/>
</g>
</svg>
