<?xml version="1.0" standalone="no"?>
<!DOCTYPE svg PUBLIC "-//W3C//DTD SVG 20010904//EN"
 "http://www.w3.org/TR/2001/REC-SVG-20010904/DTD/svg10.dtd">
<svg version="1.0" xmlns="http://www.w3.org/2000/svg"
 width="500.000000pt" height="700.000000pt" viewBox="0 0 500.000000 700.000000"
 preserveAspectRatio="xMidYMid meet">
<metadata>
Created by potrace 1.16, written by Peter Selinger 2001-2019
</metadata>
<g transform="translate(0.000000,700.000000) scale(0.100000,-0.100000)"
fill="#000000" stroke="none">
<path d="M0 3500 l0 -3500 2500 0 2500 0 0 3500 0 3500 -2500 0 -2500 0 0
-3500z m4920 0 l0 -3420 -2420 0 -2420 0 0 3420 0 3420 2420 0 2420 0 0 -3420z"/>
<path d="M522 6703 l3 -58 287 -5 287 -5 -210 -385 c-209 -381 -269 -494 -269
-505 0 -3 31 -5 69 -5 l69 0 107 203 c60 111 164 306 232 434 l123 232 0 76 0
75 -350 0 -351 0 3 -57z"/>
<path d="M1414 5069 c-99 -104 -187 -205 -196 -222 -33 -61 -17 -160 35 -215
64 -69 176 -81 256 -29 l41 27 0 -89 c0 -81 2 -91 22 -105 19 -13 25 -14 43
-2 17 12 20 26 23 105 l3 91 40 -27 c79 -52 192 -40 256 29 52 55 68 154 35
215 -13 25 -368 413 -377 413 -1 0 -83 -86 -181 -191z"/>
<path d="M3224 5069 c-99 -104 -187 -205 -196 -222 -33 -61 -17 -160 35 -215
64 -69 176 -81 256 -29 l41 27 0 -89 c0 -81 2 -91 22 -105 19 -13 25 -14 43
-2 17 12 20 26 23 105 l3 91 40 -27 c79 -52 192 -40 256 29 52 55 68 154 35
215 -13 25 -368 413 -377 413 -1 0 -83 -86 -181 -191z"/>
<path d="M2314 4389 c-99 -104 -187 -205 -196 -222 -33 -61 -17 -160 35 -215
64 -69 176 -81 256 -29 l41 27 0 -89 c0 -81 2 -91 22 -105 19 -13 25 -14 43
-2 17 12 20 26 23 105 l3 91 40 -27 c79 -52 192 -40 256 29 52 55 68 154 35
215 -13 25 -368 413 -377 413 -1 0 -83 -86 -181 -191z"/>
<path d="M1414 3709 c-99 -104 -187 -205 -196 -222 -33 -61 -17 -160 35 -215
64 -69 176 -81 256 -29 l41 27 0 -89 c0 -81 2 -91 22 -105 19 -13 25 -14 43
-2 17 12 20 26 23 105 l3 91 40 -27 c79 -52 192 -40 256 29 52 55 68 154 35
215 -13 25 -368 413 -377 413 -1 0 -83 -86 -181 -191z"/>
<path d="M3224 3709 c-99 -104 -187 -205 -196 -222 -33 -61 -17 -160 35 -215
64 -69 176 -81 256 -29 l41 27 0 -89 c0 -81 2 -91 22 -105 19 -13 25 -14 43
-2 17 12 20 26 23 105 l3 91 40 -27 c79 -52 192 -40 256 29 52 55 68 154 35
215 -13 25 -368 413 -377 413 -1 0 -83 -86 -181 -191z"/>
<path d="M1556 2564 c-12 -12 -16 -37 -16 -105 l0 -90 -35 27 c-66 50 -180 45
-242 -9 -66 -58 -90 -148 -58 -224 8 -19 94 -118 192 -222 97 -102 179 -189
183 -194 8 -9 358 362 383 406 24 44 22 120 -4 175 -32 65 -94 102 -174 102
-51 0 -69 -5 -108 -30 l-47 -30 0 90 c0 90 -11 120 -45 120 -7 0 -21 -7 -29
-16z"/>
<path d="M3388 2569 c-15 -8 -18 -25 -18 -104 l0 -95 -47 30 c-99 63 -233 28
-282 -72 -24 -50 -27 -127 -8 -170 7 -14 95 -114 195 -221 l184 -195 97 101
c53 56 136 143 184 194 93 98 117 139 117 200 -1 82 -73 175 -145 189 -63 11
-131 -1 -170 -30 l-35 -27 0 89 c0 73 -3 92 -18 105 -21 19 -30 20 -54 6z"/>
<path d="M4132 1053 c-60 -115 -164 -310 -231 -436 l-121 -227 0 -75 0 -75
350 0 351 0 -3 57 -3 58 -287 5 -287 5 240 438 c131 241 239 443 239 448 0 5
-31 9 -69 9 l-69 0 -110 -207z"/>
</g>
</svg>
