<?xml version="1.0" standalone="no"?>
<!DOCTYPE svg PUBLIC "-//W3C//DTD SVG 20010904//EN"
 "http://www.w3.org/TR/2001/REC-SVG-20010904/DTD/svg10.dtd">
<svg version="1.0" xmlns="http://www.w3.org/2000/svg"
 width="500.000000pt" height="700.000000pt" viewBox="0 0 500.000000 700.000000"
 preserveAspectRatio="xMidYMid meet">
<metadata>
Created by potrace 1.16, written by Peter Selinger 2001-2019
</metadata>
<g transform="translate(0.000000,700.000000) scale(0.100000,-0.100000)"
fill="#000000" stroke="none">
<path d="M0 3500 l0 -3500 2500 0 2500 0 0 3500 0 3500 -2500 0 -2500 0 0
-3500z m4920 0 l0 -3420 -2420 0 -2420 0 0 3420 0 3420 2420 0 2420 0 0 -3420z"/>
<path d="M770 6777 c-146 -34 -240 -135 -240 -257 0 -83 41 -151 130 -213 16
-11 21 -20 13 -23 -6 -3 -30 -18 -52 -35 -91 -66 -134 -170 -112 -277 28 -142
139 -231 308 -247 222 -22 406 113 406 298 0 106 -48 182 -150 239 l-42 24 51
35 c145 97 153 300 16 400 -77 55 -223 80 -328 56z m207 -118 c57 -27 83 -72
83 -140 0 -69 -27 -127 -76 -167 -43 -36 -40 -36 -154 11 -49 20 -90 45 -117
72 -40 40 -43 46 -43 97 0 41 5 62 21 82 57 73 185 93 286 45z m21 -493 c60
-37 82 -78 82 -149 0 -107 -51 -166 -161 -187 -106 -20 -215 25 -255 106 -13
27 -19 59 -19 104 1 79 26 132 86 183 l41 36 92 -33 c50 -18 110 -45 134 -60z"/>
<path d="M1512 5219 c-63 -32 -96 -92 -90 -168 3 -37 11 -68 25 -87 l22 -30
-59 4 c-50 4 -66 0 -104 -22 -122 -72 -110 -256 21 -312 68 -29 170 -6 207 48
14 20 16 13 18 -92 3 -101 5 -114 23 -126 18 -12 24 -11 43 2 20 14 22 23 22
127 0 104 1 110 16 89 37 -54 151 -80 212 -48 92 48 126 150 81 243 -31 64
-91 97 -169 91 l-59 -4 22 30 c14 19 22 50 25 87 4 49 0 65 -22 103 -47 80
-147 108 -234 65z"/>
<path d="M3322 5219 c-63 -32 -96 -92 -90 -168 3 -37 11 -68 25 -87 l22 -30
-59 4 c-50 4 -66 0 -104 -22 -122 -72 -110 -256 21 -312 68 -29 170 -6 207 48
14 20 16 13 18 -92 3 -101 5 -114 23 -126 18 -12 24 -11 43 2 20 14 22 23 22
127 0 104 1 110 16 89 37 -54 151 -80 212 -48 92 48 126 150 81 243 -31 64
-91 97 -169 91 l-59 -4 22 30 c14 19 22 50 25 87 4 49 0 65 -22 103 -47 80
-147 108 -234 65z"/>
<path d="M2412 4539 c-63 -32 -96 -92 -90 -168 3 -37 11 -68 25 -87 l22 -30
-59 4 c-50 4 -66 0 -104 -22 -122 -72 -110 -256 21 -312 68 -29 170 -6 207 48
14 20 16 13 18 -92 3 -101 5 -114 23 -126 18 -12 24 -11 43 2 20 14 22 23 22
127 0 104 1 110 16 89 37 -54 151 -80 212 -48 92 48 126 150 81 243 -31 64
-91 97 -169 91 l-59 -4 22 30 c14 19 22 50 25 87 4 49 0 65 -22 103 -47 80
-147 108 -234 65z"/>
<path d="M1512 3859 c-63 -32 -96 -92 -90 -168 3 -37 11 -68 25 -87 l22 -30
-59 4 c-50 4 -66 0 -104 -22 -122 -72 -110 -256 21 -312 68 -29 170 -6 207 48
14 20 16 13 18 -92 3 -101 5 -114 23 -126 18 -12 24 -11 43 2 20 14 22 23 22
127 0 104 1 110 16 89 37 -54 151 -80 212 -48 92 48 126 150 81 243 -31 64
-91 97 -169 91 l-59 -4 22 30 c14 19 22 50 25 87 4 49 0 65 -22 103 -47 80
-147 108 -234 65z"/>
<path d="M3322 3859 c-63 -32 -96 -92 -90 -168 3 -37 11 -68 25 -87 l22 -30
-59 4 c-50 4 -66 0 -104 -22 -122 -72 -110 -256 21 -312 68 -29 170 -6 207 48
14 20 16 13 18 -92 3 -101 5 -114 23 -126 18 -12 24 -11 43 2 20 14 22 23 22
127 0 104 1 110 16 89 37 -54 151 -80 212 -48 92 48 126 150 81 243 -31 64
-91 97 -169 91 l-59 -4 22 30 c14 19 22 50 25 87 4 49 0 65 -22 103 -47 80
-147 108 -234 65z"/>
<path d="M2472 3248 c-8 -8 -12 -50 -12 -121 l0 -109 -39 35 c-106 96 -273 29
-288 -115 -4 -43 -1 -63 16 -95 38 -76 118 -116 191 -96 l39 10 -26 -44 c-34
-59 -30 -144 10 -196 50 -66 144 -89 220 -52 59 28 90 76 95 146 4 49 0 65
-21 102 l-26 44 39 -10 c72 -20 153 20 190 94 21 40 27 119 10 119 -5 0 -10
11 -10 24 0 35 -44 82 -95 101 -64 25 -125 14 -176 -32 l-39 -35 0 101 c0 56
-5 111 -10 122 -12 21 -50 25 -68 7z"/>
<path d="M1556 2564 c-13 -12 -16 -38 -16 -122 l0 -106 -27 26 c-42 38 -66 48
-123 48 -172 0 -243 -211 -105 -315 41 -32 127 -45 163 -26 21 11 20 9 -3 -25
-32 -47 -39 -74 -32 -130 14 -132 184 -199 283 -112 47 41 66 82 66 138 0 50
-12 81 -46 118 l-21 23 28 -10 c76 -29 171 4 212 73 30 51 33 121 9 173 -48
99 -197 126 -279 49 l-35 -33 0 108 c0 110 -9 139 -45 139 -7 0 -21 -7 -29
-16z"/>
<path d="M3388 2569 c-16 -9 -18 -26 -18 -126 l0 -116 -20 25 c-27 36 -80 58
-135 58 -99 0 -163 -59 -172 -159 -5 -52 -2 -65 21 -104 42 -72 136 -106 213
-76 l28 10 -21 -23 c-34 -37 -46 -68 -46 -118 0 -56 19 -97 66 -138 99 -87
269 -20 283 112 7 56 0 83 -32 130 -23 34 -24 36 -3 25 36 -19 122 -6 163 26
138 104 67 315 -105 315 -57 0 -81 -10 -122 -48 l-28 -26 0 106 c0 89 -3 107
-18 121 -21 19 -30 20 -54 6z"/>
<path d="M4020 1262 c-150 -40 -241 -149 -242 -287 0 -104 47 -180 149 -237
l42 -24 -51 -35 c-34 -23 -61 -52 -82 -89 -59 -104 -34 -235 59 -305 106 -81
297 -95 425 -30 59 30 126 102 139 151 32 117 -3 208 -107 274 l-42 28 44 26
c218 128 178 441 -68 520 -79 26 -189 29 -266 8z m230 -116 c135 -67 147 -257
23 -366 l-44 -38 -69 23 c-189 64 -240 111 -240 222 0 80 34 136 100 165 74
32 158 30 230 -6z m-80 -509 c49 -20 90 -45 118 -72 39 -40 42 -46 42 -98 0
-45 -5 -61 -26 -87 -36 -42 -87 -62 -164 -63 -126 -2 -200 59 -200 164 0 69
27 127 76 167 43 36 40 36 154 -11z"/>
</g>
</svg>
