<?xml version="1.0" standalone="no"?>
<!DOCTYPE svg PUBLIC "-//W3C//DTD SVG 20010904//EN"
 "http://www.w3.org/TR/2001/REC-SVG-20010904/DTD/svg10.dtd">
<svg version="1.0" xmlns="http://www.w3.org/2000/svg"
 width="500.000000pt" height="700.000000pt" viewBox="0 0 500.000000 700.000000"
 preserveAspectRatio="xMidYMid meet">
<metadata>
Created by potrace 1.16, written by Peter Selinger 2001-2019
</metadata>
<g transform="translate(0.000000,700.000000) scale(0.100000,-0.100000)"
fill="#000000" stroke="none">
<path d="M0 3500 l0 -3500 2500 0 2500 0 0 3500 0 3500 -2500 0 -2500 0 0
-3500z m4920 0 l0 -3420 -2420 0 -2420 0 0 3420 0 3420 2420 0 2420 0 0 -3420z"/>
<path d="M770 6777 c-146 -34 -240 -135 -240 -257 0 -83 41 -151 130 -213 16
-11 21 -20 13 -23 -6 -3 -30 -18 -52 -35 -91 -66 -134 -170 -112 -277 28 -142
139 -231 308 -247 222 -22 406 113 406 298 0 106 -48 182 -150 239 l-42 24 51
35 c145 97 153 300 16 400 -77 55 -223 80 -328 56z m207 -118 c57 -27 83 -72
83 -140 0 -69 -27 -127 -76 -167 -43 -36 -40 -36 -154 11 -49 20 -90 45 -117
72 -40 40 -43 46 -43 97 0 41 5 62 21 82 57 73 185 93 286 45z m21 -493 c60
-37 82 -78 82 -149 0 -107 -51 -166 -161 -187 -106 -20 -215 25 -255 106 -13
27 -19 59 -19 104 1 79 26 132 86 183 l41 36 92 -33 c50 -18 110 -45 134 -60z"/>
<path d="M1455 5073 c-77 -102 -143 -191 -147 -198 -5 -8 49 -88 138 -206 80
-107 147 -194 149 -194 12 0 293 390 288 399 -7 11 -271 366 -282 378 -4 4
-70 -76 -146 -179z"/>
<path d="M3265 5073 c-77 -102 -143 -191 -147 -198 -5 -8 49 -88 138 -206 80
-107 147 -194 149 -194 12 0 293 390 288 399 -7 11 -271 366 -282 378 -4 4
-70 -76 -146 -179z"/>
<path d="M2355 4393 c-77 -102 -143 -191 -147 -198 -5 -8 49 -88 138 -206 80
-107 147 -194 149 -194 12 0 293 390 288 399 -7 11 -271 366 -282 378 -4 4
-70 -76 -146 -179z"/>
<path d="M1455 3713 c-77 -102 -143 -191 -147 -198 -5 -8 49 -88 138 -206 80
-107 147 -194 149 -194 12 0 293 390 288 399 -7 11 -271 366 -282 378 -4 4
-70 -76 -146 -179z"/>
<path d="M3265 3713 c-77 -102 -143 -191 -147 -198 -5 -8 49 -88 138 -206 80
-107 147 -194 149 -194 12 0 293 390 288 399 -7 11 -271 366 -282 378 -4 4
-70 -76 -146 -179z"/>
<path d="M2357 3019 l-148 -198 137 -183 c75 -101 142 -189 149 -196 9 -10 41
26 159 183 l147 196 -148 198 -148 198 -148 -198z"/>
<path d="M1445 2344 c-77 -103 -143 -192 -147 -198 -3 -6 59 -99 141 -208
l147 -197 140 186 c76 102 143 192 147 200 6 10 -34 71 -137 209 -81 107 -147
194 -149 194 -1 0 -65 -84 -142 -186z"/>
<path d="M3265 2336 c-104 -137 -144 -199 -138 -209 4 -8 71 -98 147 -200
l139 -186 125 167 c69 92 136 181 149 198 l23 31 -145 193 c-80 106 -147 195
-149 197 -3 3 -70 -83 -151 -191z"/>
<path d="M4020 1262 c-150 -40 -241 -149 -242 -287 0 -104 47 -180 149 -237
l42 -24 -51 -35 c-34 -23 -61 -52 -82 -89 -59 -104 -34 -235 59 -305 106 -81
297 -95 425 -30 59 30 126 102 139 151 32 117 -3 208 -107 274 l-42 28 44 26
c218 128 178 441 -68 520 -79 26 -189 29 -266 8z m230 -116 c135 -67 147 -257
23 -366 l-44 -38 -69 23 c-189 64 -240 111 -240 222 0 80 34 136 100 165 74
32 158 30 230 -6z m-80 -509 c49 -20 90 -45 118 -72 39 -40 42 -46 42 -98 0
-45 -5 -61 -26 -87 -36 -42 -87 -62 -164 -63 -126 -2 -200 59 -200 164 0 69
27 127 76 167 43 36 40 36 154 -11z"/>
</g>
</svg>
