<?xml version="1.0" standalone="no"?>
<!DOCTYPE svg PUBLIC "-//W3C//DTD SVG 20010904//EN"
 "http://www.w3.org/TR/2001/REC-SVG-20010904/DTD/svg10.dtd">
<svg version="1.0" xmlns="http://www.w3.org/2000/svg"
 width="500.000000pt" height="700.000000pt" viewBox="0 0 500.000000 700.000000"
 preserveAspectRatio="xMidYMid meet">
<metadata>
Created by potrace 1.16, written by Peter Selinger 2001-2019
</metadata>
<g transform="translate(0.000000,700.000000) scale(0.100000,-0.100000)"
fill="#000000" stroke="none">
<path d="M0 3500 l0 -3500 2500 0 2500 0 0 3500 0 3500 -2500 0 -2500 0 0
-3500z m4920 0 l0 -3420 -2420 0 -2420 0 0 3420 0 3420 2420 0 2420 0 0 -3420z"/>
<path d="M770 6777 c-146 -34 -240 -135 -240 -257 0 -83 41 -151 130 -213 16
-11 21 -20 13 -23 -6 -3 -30 -18 -52 -35 -91 -66 -134 -170 -112 -277 28 -142
139 -231 308 -247 222 -22 406 113 406 298 0 106 -48 182 -150 239 l-42 24 51
35 c145 97 153 300 16 400 -77 55 -223 80 -328 56z m207 -118 c57 -27 83 -72
83 -140 0 -69 -27 -127 -76 -167 -43 -36 -40 -36 -154 11 -49 20 -90 45 -117
72 -40 40 -43 46 -43 97 0 41 5 62 21 82 57 73 185 93 286 45z m21 -493 c60
-37 82 -78 82 -149 0 -107 -51 -166 -161 -187 -106 -20 -215 25 -255 106 -13
27 -19 59 -19 104 1 79 26 132 86 183 l41 36 92 -33 c50 -18 110 -45 134 -60z"/>
<path d="M1315 5241 c-115 -53 -153 -204 -74 -296 9 -11 92 -121 184 -245 91
-124 168 -225 170 -225 3 0 79 101 171 225 91 124 174 234 183 245 43 50 53
127 26 193 -71 169 -317 157 -369 -19 l-13 -43 -7 37 c-9 46 -66 112 -114 133
-47 19 -109 17 -157 -5z"/>
<path d="M3125 5241 c-115 -53 -153 -204 -74 -296 9 -11 92 -121 184 -245 91
-124 168 -225 170 -225 3 0 79 101 171 225 91 124 174 234 183 245 43 50 53
127 26 193 -71 169 -317 157 -369 -19 l-13 -43 -7 37 c-9 46 -66 112 -114 133
-47 19 -109 17 -157 -5z"/>
<path d="M2220 4564 c-72 -31 -80 -47 -80 -151 0 -75 -3 -93 -15 -93 -17 0
-10 -26 16 -55 9 -11 92 -121 184 -245 91 -124 168 -225 170 -225 3 0 79 101
171 225 91 124 174 234 183 245 22 25 33 55 21 55 -6 0 -10 38 -10 88 0 83 -2
90 -27 115 -107 102 -286 56 -327 -84 l-13 -43 -7 37 c-9 46 -66 112 -114 133
-44 18 -107 17 -152 -2z"/>
<path d="M1315 3881 c-115 -53 -153 -204 -74 -296 9 -11 92 -121 184 -245 91
-124 168 -225 170 -225 3 0 79 101 171 225 91 124 174 234 183 245 26 29 33
55 16 55 -12 0 -15 18 -15 93 0 84 -2 96 -23 115 -103 97 -281 48 -321 -89
l-13 -43 -7 37 c-9 46 -66 112 -114 133 -47 19 -109 17 -157 -5z"/>
<path d="M3130 3884 c-19 -8 -47 -27 -62 -41 -26 -25 -28 -32 -28 -115 0 -50
-4 -88 -10 -88 -13 0 -1 -30 21 -55 9 -11 92 -121 184 -245 91 -124 168 -225
170 -225 3 0 79 101 171 225 91 124 174 234 183 245 43 50 53 127 26 193 -71
169 -317 157 -369 -19 l-13 -43 -7 37 c-9 46 -66 112 -114 133 -44 18 -107 17
-152 -2z"/>
<path d="M2445 3136 c-33 -44 -112 -150 -175 -234 -63 -84 -125 -172 -137
-195 -41 -75 -24 -165 44 -229 37 -35 73 -48 134 -48 96 0 166 57 190 155 6
25 7 26 8 7 1 -26 26 -78 50 -106 43 -49 149 -71 218 -45 66 25 123 109 123
181 0 57 -22 95 -156 275 -62 81 -140 187 -175 234 l-64 87 -60 -82z"/>
<path d="M1405 2289 c-99 -133 -188 -257 -197 -278 -29 -60 -19 -132 26 -194
23 -32 109 -77 145 -77 96 0 200 84 201 162 1 15 7 6 20 -27 49 -126 193 -171
300 -94 77 56 102 164 58 246 -19 33 -365 503 -371 503 -1 0 -83 -108 -182
-241z"/>
<path d="M3354 2454 c-32 -44 -110 -148 -174 -233 -63 -84 -125 -172 -137
-194 -46 -84 -21 -189 58 -247 106 -76 251 -31 299 95 13 33 19 42 20 27 1
-78 105 -162 201 -162 36 0 122 45 145 77 43 59 54 129 30 187 -11 26 -335
474 -377 520 -4 4 -33 -27 -65 -70z"/>
<path d="M4020 1262 c-150 -40 -241 -149 -242 -287 0 -104 47 -180 149 -237
l42 -24 -51 -35 c-34 -23 -61 -52 -82 -89 -59 -104 -34 -235 59 -305 106 -81
297 -95 425 -30 59 30 126 102 139 151 32 117 -3 208 -107 274 l-42 28 44 26
c218 128 178 441 -68 520 -79 26 -189 29 -266 8z m230 -116 c135 -67 147 -257
23 -366 l-44 -38 -69 23 c-189 64 -240 111 -240 222 0 80 34 136 100 165 74
32 158 30 230 -6z m-80 -509 c49 -20 90 -45 118 -72 39 -40 42 -46 42 -98 0
-45 -5 -61 -26 -87 -36 -42 -87 -62 -164 -63 -126 -2 -200 59 -200 164 0 69
27 127 76 167 43 36 40 36 154 -11z"/>
</g>
</svg>
