<?xml version="1.0" standalone="no"?>
<!DOCTYPE svg PUBLIC "-//W3C//DTD SVG 20010904//EN"
 "http://www.w3.org/TR/2001/REC-SVG-20010904/DTD/svg10.dtd">
<svg version="1.0" xmlns="http://www.w3.org/2000/svg"
 width="500.000000pt" height="700.000000pt" viewBox="0 0 500.000000 700.000000"
 preserveAspectRatio="xMidYMid meet">
<metadata>
Created by potrace 1.16, written by Peter Selinger 2001-2019
</metadata>
<g transform="translate(0.000000,700.000000) scale(0.100000,-0.100000)"
fill="#000000" stroke="none">
<path d="M0 3500 l0 -3500 2500 0 2500 0 0 3500 0 3500 -2500 0 -2500 0 0
-3500z m4920 0 l0 -3420 -2420 0 -2420 0 0 3420 0 3420 2420 0 2420 0 0 -3420z"/>
<path d="M770 6777 c-146 -34 -240 -135 -240 -257 0 -83 41 -151 130 -213 16
-11 21 -20 13 -23 -6 -3 -30 -18 -52 -35 -91 -66 -134 -170 -112 -277 28 -142
139 -231 308 -247 222 -22 406 113 406 298 0 106 -48 182 -150 239 l-42 24 51
35 c145 97 153 300 16 400 -77 55 -223 80 -328 56z m207 -118 c57 -27 83 -72
83 -140 0 -69 -27 -127 -76 -167 -43 -36 -40 -36 -154 11 -49 20 -90 45 -117
72 -40 40 -43 46 -43 97 0 41 5 62 21 82 57 73 185 93 286 45z m21 -493 c60
-37 82 -78 82 -149 0 -107 -51 -166 -161 -187 -106 -20 -215 25 -255 106 -13
27 -19 59 -19 104 1 79 26 132 86 183 l41 36 92 -33 c50 -18 110 -45 134 -60z"/>
<path d="M1414 5069 c-99 -104 -187 -205 -196 -222 -33 -61 -17 -160 35 -215
64 -69 176 -81 256 -29 l41 27 0 -89 c0 -81 2 -91 22 -105 19 -13 25 -14 43
-2 17 12 20 26 23 105 l3 91 40 -27 c79 -52 192 -40 256 29 52 55 68 154 35
215 -13 25 -368 413 -377 413 -1 0 -83 -86 -181 -191z"/>
<path d="M3224 5069 c-99 -104 -187 -205 -196 -222 -33 -61 -17 -160 35 -215
64 -69 176 -81 256 -29 l41 27 0 -89 c0 -81 2 -91 22 -105 19 -13 25 -14 43
-2 17 12 20 26 23 105 l3 91 40 -27 c79 -52 192 -40 256 29 52 55 68 154 35
215 -13 25 -368 413 -377 413 -1 0 -83 -86 -181 -191z"/>
<path d="M2314 4389 c-99 -104 -187 -205 -196 -222 -33 -61 -17 -160 35 -215
64 -69 176 -81 256 -29 l41 27 0 -89 c0 -81 2 -91 22 -105 19 -13 25 -14 43
-2 17 12 20 26 23 105 l3 91 40 -27 c79 -52 192 -40 256 29 52 55 68 154 35
215 -13 25 -368 413 -377 413 -1 0 -83 -86 -181 -191z"/>
<path d="M1414 3709 c-99 -104 -187 -205 -196 -222 -33 -61 -17 -160 35 -215
64 -69 176 -81 256 -29 l41 27 0 -89 c0 -81 2 -91 22 -105 19 -13 25 -14 43
-2 17 12 20 26 23 105 l3 91 40 -27 c79 -52 192 -40 256 29 52 55 68 154 35
215 -13 25 -368 413 -377 413 -1 0 -83 -86 -181 -191z"/>
<path d="M3224 3709 c-99 -104 -187 -205 -196 -222 -33 -61 -17 -160 35 -215
64 -69 176 -81 256 -29 l41 27 0 -89 c0 -81 2 -91 22 -105 19 -13 25 -14 43
-2 17 12 20 26 23 105 l3 91 40 -27 c79 -52 192 -40 256 29 52 55 68 154 35
215 -13 25 -368 413 -377 413 -1 0 -83 -86 -181 -191z"/>
<path d="M2472 3248 c-8 -8 -12 -46 -12 -107 l0 -94 -23 21 c-72 68 -188 67
-262 -2 -28 -26 -35 -41 -35 -70 0 -25 -4 -36 -15 -36 -20 0 -20 -68 0 -115 8
-20 96 -121 197 -226 l182 -191 178 183 c98 101 187 202 198 225 11 22 20 59
20 82 0 35 -3 42 -20 42 -17 0 -20 7 -20 45 0 41 -4 47 -41 74 -73 53 -172 51
-239 -5 l-30 -26 0 87 c0 47 -5 95 -10 106 -12 21 -50 25 -68 7z"/>
<path d="M1556 2564 c-12 -12 -16 -37 -16 -105 l0 -90 -35 27 c-66 50 -180 45
-242 -9 -66 -58 -90 -148 -58 -224 8 -19 94 -118 192 -222 97 -102 179 -189
183 -194 8 -9 358 362 383 406 18 34 24 127 7 127 -5 0 -10 11 -10 25 0 66
-83 125 -176 125 -49 0 -68 -5 -107 -30 l-47 -30 0 90 c0 90 -11 120 -45 120
-7 0 -21 -7 -29 -16z"/>
<path d="M3388 2569 c-15 -8 -18 -25 -18 -104 l0 -95 -47 30 c-63 40 -146 42
-209 5 -50 -29 -64 -50 -64 -94 0 -21 -5 -31 -15 -31 -19 0 -20 -82 -2 -122 7
-14 95 -114 195 -221 l184 -195 97 101 c53 56 136 143 184 194 93 98 117 139
117 200 -1 82 -73 175 -145 189 -63 11 -131 -1 -170 -30 l-35 -27 0 89 c0 73
-3 92 -18 105 -21 19 -30 20 -54 6z"/>
<path d="M4020 1262 c-150 -40 -241 -149 -242 -287 0 -104 47 -180 149 -237
l42 -24 -51 -35 c-34 -23 -61 -52 -82 -89 -59 -104 -34 -235 59 -305 106 -81
297 -95 425 -30 59 30 126 102 139 151 32 117 -3 208 -107 274 l-42 28 44 26
c218 128 178 441 -68 520 -79 26 -189 29 -266 8z m230 -116 c135 -67 147 -257
23 -366 l-44 -38 -69 23 c-189 64 -240 111 -240 222 0 80 34 136 100 165 74
32 158 30 230 -6z m-80 -509 c49 -20 90 -45 118 -72 39 -40 42 -46 42 -98 0
-45 -5 -61 -26 -87 -36 -42 -87 -62 -164 -63 -126 -2 -200 59 -200 164 0 69
27 127 76 167 43 36 40 36 154 -11z"/>
</g>
</svg>
