<?xml version="1.0" standalone="no"?>
<!DOCTYPE svg PUBLIC "-//W3C//DTD SVG 20010904//EN"
 "http://www.w3.org/TR/2001/REC-SVG-20010904/DTD/svg10.dtd">
<svg version="1.0" xmlns="http://www.w3.org/2000/svg"
 width="500.000000pt" height="700.000000pt" viewBox="0 0 500.000000 700.000000"
 preserveAspectRatio="xMidYMid meet">
<metadata>
Created by potrace 1.16, written by Peter Selinger 2001-2019
</metadata>
<g transform="translate(0.000000,700.000000) scale(0.100000,-0.100000)"
fill="#000000" stroke="none">
<path d="M0 3500 l0 -3500 2500 0 2500 0 0 3500 0 3500 -2500 0 -2500 0 0
-3500z m4920 0 l0 -3420 -2420 0 -2420 0 0 3420 0 3420 2420 0 2420 0 0 -3420z"/>
<path d="M713 6759 c-67 -26 -147 -98 -180 -163 -36 -69 -44 -207 -18 -287 24
-71 101 -149 170 -172 112 -39 241 -30 345 23 l40 20 0 -22 c0 -30 -24 -118
-40 -148 -46 -87 -127 -144 -231 -161 -57 -9 -114 -4 -186 17 -22 6 -23 4 -23
-54 0 -81 8 -86 159 -80 105 4 123 7 184 35 169 80 262 238 282 483 20 255
-66 448 -228 509 -77 28 -200 28 -274 0z m238 -112 c80 -42 129 -159 129 -309
l0 -56 -52 -23 c-56 -25 -186 -37 -254 -25 -42 8 -102 59 -120 103 -21 50 -18
176 5 221 24 47 70 91 107 102 58 17 138 11 185 -13z"/>
<path d="M1512 5219 c-63 -32 -96 -92 -90 -168 3 -37 11 -68 25 -87 l22 -30
-59 4 c-50 4 -66 0 -104 -22 -122 -72 -110 -256 21 -312 68 -29 170 -6 207 48
14 20 16 13 18 -92 3 -101 5 -114 23 -126 18 -12 24 -11 43 2 20 14 22 23 22
127 0 104 1 110 16 89 37 -54 151 -80 212 -48 92 48 126 150 81 243 -31 64
-91 97 -169 91 l-59 -4 22 30 c14 19 22 50 25 87 4 49 0 65 -22 103 -47 80
-147 108 -234 65z"/>
<path d="M3322 5219 c-63 -32 -96 -92 -90 -168 3 -37 11 -68 25 -87 l22 -30
-59 4 c-50 4 -66 0 -104 -22 -122 -72 -110 -256 21 -312 68 -29 170 -6 207 48
14 20 16 13 18 -92 3 -101 5 -114 23 -126 18 -12 24 -11 43 2 20 14 22 23 22
127 0 104 1 110 16 89 37 -54 151 -80 212 -48 92 48 126 150 81 243 -31 64
-91 97 -169 91 l-59 -4 22 30 c14 19 22 50 25 87 4 49 0 65 -22 103 -47 80
-147 108 -234 65z"/>
<path d="M1495 4300 c-17 -11 -41 -38 -54 -61 -30 -52 -27 -139 6 -185 l22
-30 -59 4 c-50 4 -66 0 -104 -22 -122 -72 -110 -256 21 -312 68 -29 170 -6
207 48 14 20 16 13 18 -92 3 -101 5 -114 23 -126 18 -12 24 -11 43 2 20 14 22
23 22 127 0 104 1 110 16 89 37 -54 151 -80 212 -48 92 48 126 150 81 243 -31
64 -91 97 -169 91 l-59 -4 22 30 c33 46 36 133 6 186 -34 60 -72 80 -155 80
-51 0 -77 -5 -99 -20z"/>
<path d="M3305 4300 c-17 -11 -41 -38 -54 -61 -30 -52 -27 -139 6 -185 l22
-30 -59 4 c-50 4 -66 0 -104 -22 -122 -72 -110 -256 21 -312 68 -29 170 -6
207 48 14 20 16 13 18 -92 3 -101 5 -114 23 -126 18 -12 24 -11 43 2 20 14 22
23 22 127 0 104 1 110 16 89 37 -54 151 -80 212 -48 92 48 126 150 81 243 -31
64 -91 97 -169 91 l-59 -4 22 30 c33 46 36 133 6 186 -34 60 -72 80 -155 80
-51 0 -77 -5 -99 -20z"/>
<path d="M2412 3859 c-63 -32 -96 -92 -90 -168 3 -37 11 -68 25 -87 l22 -30
-58 4 c-97 7 -171 -46 -171 -124 0 -23 -5 -44 -11 -46 -21 -7 0 -76 34 -115
38 -43 81 -63 137 -63 47 0 112 30 134 62 14 20 16 13 18 -92 3 -101 5 -114
23 -126 18 -12 24 -11 43 2 20 14 22 23 22 127 0 104 1 110 16 89 37 -54 151
-80 212 -48 36 19 78 65 92 100 14 37 3 122 -21 161 -10 17 -37 41 -59 54 -34
19 -52 23 -100 19 l-59 -4 22 30 c14 19 22 50 25 87 4 49 0 65 -22 103 -47 80
-147 108 -234 65z"/>
<path d="M1540 3330 l0 -81 -40 32 c-29 23 -53 33 -89 37 -66 6 -93 -2 -137
-40 -86 -76 -86 -190 0 -266 43 -38 71 -46 135 -40 l48 5 -23 -41 c-41 -72
-28 -162 32 -218 113 -105 296 -24 296 131 0 51 -11 81 -46 120 l-21 24 22
-12 c34 -18 110 -13 154 9 58 30 79 70 79 155 0 85 -21 125 -79 155 -74 37
-184 17 -225 -42 -15 -21 -16 -17 -16 65 l0 87 -45 0 -45 0 0 -80z"/>
<path d="M3370 3323 c0 -82 -1 -86 -16 -65 -24 34 -87 62 -141 62 -99 -1 -173
-75 -173 -175 0 -100 74 -174 173 -175 27 0 58 5 70 11 l22 12 -21 -24 c-34
-38 -46 -69 -47 -119 -2 -95 81 -180 176 -180 136 0 221 148 153 266 l-23 41
48 -5 c64 -6 92 2 135 40 61 54 80 130 50 201 -16 38 -76 94 -112 103 -53 13
-123 -2 -164 -35 l-40 -32 0 81 0 80 -45 0 -45 0 0 -87z"/>
<path d="M1540 2418 l0 -82 -27 26 c-42 38 -66 48 -123 48 -172 0 -243 -211
-105 -315 41 -32 127 -45 163 -26 21 11 20 9 -3 -25 -32 -47 -39 -74 -32 -130
14 -132 184 -199 283 -112 47 41 66 82 66 138 0 50 -12 81 -46 118 l-21 23 28
-10 c76 -29 171 4 212 73 30 51 33 121 9 173 -48 99 -197 126 -279 49 l-35
-33 0 83 0 84 -45 0 -45 0 0 -82z"/>
<path d="M3370 2416 l0 -83 -35 33 c-82 77 -231 50 -279 -49 -24 -52 -21 -122
9 -173 41 -69 136 -102 212 -73 l28 10 -21 -23 c-34 -37 -46 -68 -46 -118 0
-56 19 -97 66 -138 99 -87 269 -20 283 112 7 56 0 83 -32 130 -23 34 -24 36
-3 25 36 -19 122 -6 163 26 138 104 67 315 -105 315 -57 0 -81 -10 -122 -48
l-28 -26 0 82 0 82 -45 0 -45 0 0 -84z"/>
<path d="M4129 1256 c-72 -20 -145 -65 -198 -121 -99 -105 -142 -236 -144
-440 -1 -144 11 -210 53 -295 59 -118 167 -180 310 -180 101 0 172 26 240 87
76 68 103 128 108 239 6 124 -13 181 -82 249 -104 102 -276 122 -434 50 l-55
-25 7 50 c14 104 74 200 154 243 87 47 184 54 300 21 21 -6 22 -4 22 54 0 50
-3 63 -19 72 -27 14 -206 11 -262 -4z m118 -497 c34 -13 80 -55 99 -91 9 -17
14 -57 14 -106 0 -95 -29 -163 -87 -202 -32 -22 -48 -25 -118 -25 -74 0 -86 3
-123 29 -23 15 -51 45 -63 64 -42 73 -65 266 -35 292 8 6 36 20 63 30 55 22
203 27 250 9z"/>
</g>
</svg>
