<?xml version="1.0" standalone="no"?>
<!DOCTYPE svg PUBLIC "-//W3C//DTD SVG 20010904//EN"
 "http://www.w3.org/TR/2001/REC-SVG-20010904/DTD/svg10.dtd">
<svg version="1.0" xmlns="http://www.w3.org/2000/svg"
 width="500.000000pt" height="700.000000pt" viewBox="0 0 500.000000 700.000000"
 preserveAspectRatio="xMidYMid meet">
<metadata>
Created by potrace 1.16, written by Peter Selinger 2001-2019
</metadata>
<g transform="translate(0.000000,700.000000) scale(0.100000,-0.100000)"
fill="#000000" stroke="none">
<path d="M0 3500 l0 -3500 2500 0 2500 0 0 3500 0 3500 -2500 0 -2500 0 0
-3500z m4920 0 l0 -3420 -2420 0 -2420 0 0 3420 0 3420 2420 0 2420 0 0 -3420z"/>
<path d="M713 6759 c-67 -26 -147 -98 -180 -163 -36 -69 -44 -207 -18 -287 24
-71 101 -149 170 -172 112 -39 241 -30 345 23 l40 20 0 -22 c0 -30 -24 -118
-40 -148 -46 -87 -127 -144 -231 -161 -57 -9 -114 -4 -186 17 -22 6 -23 4 -23
-54 0 -81 8 -86 159 -80 105 4 123 7 184 35 169 80 262 238 282 483 20 255
-66 448 -228 509 -77 28 -200 28 -274 0z m238 -112 c80 -42 129 -159 129 -309
l0 -56 -52 -23 c-56 -25 -186 -37 -254 -25 -42 8 -102 59 -120 103 -21 50 -18
176 5 221 24 47 70 91 107 102 58 17 138 11 185 -13z"/>
<path d="M1455 5073 c-77 -102 -143 -191 -147 -198 -5 -8 49 -88 138 -206 80
-107 147 -194 149 -194 12 0 293 390 288 399 -7 11 -271 366 -282 378 -4 4
-70 -76 -146 -179z"/>
<path d="M3265 5073 c-77 -102 -143 -191 -147 -198 -5 -8 49 -88 138 -206 80
-107 147 -194 149 -194 12 0 293 390 288 399 -7 11 -271 366 -282 378 -4 4
-70 -76 -146 -179z"/>
<path d="M1443 4148 c-71 -95 -132 -178 -136 -184 -5 -9 263 -382 285 -395 11
-7 298 383 291 395 -4 6 -65 89 -136 184 -101 134 -134 172 -152 172 -18 0
-51 -38 -152 -172z"/>
<path d="M3253 4148 c-71 -95 -132 -178 -136 -184 -5 -9 263 -382 285 -395 11
-7 298 383 291 395 -4 6 -65 89 -136 184 -101 134 -134 172 -152 172 -18 0
-51 -38 -152 -172z"/>
<path d="M2355 3713 c-77 -102 -143 -191 -147 -198 -5 -8 49 -88 138 -206 80
-107 147 -194 149 -194 12 0 293 390 288 399 -7 11 -271 366 -282 378 -4 4
-70 -76 -146 -179z"/>
<path d="M1426 3228 l-136 -181 23 -31 c13 -17 80 -106 149 -198 l126 -168
146 195 c80 107 146 197 146 200 0 3 -61 86 -135 185 -109 144 -140 180 -159
180 -19 0 -50 -36 -160 -182z"/>
<path d="M3255 3230 c-74 -99 -135 -182 -135 -185 0 -3 66 -93 146 -200 l146
-195 126 168 c69 92 136 181 149 198 l23 31 -136 181 c-110 146 -141 182 -160
182 -19 0 -50 -36 -159 -180z"/>
<path d="M1426 2318 l-136 -181 23 -31 c13 -17 80 -106 149 -198 l125 -167
139 186 c76 102 143 192 147 200 6 10 -31 68 -125 193 -113 152 -137 179 -159
180 -23 0 -46 -25 -163 -182z"/>
<path d="M3252 2320 c-94 -125 -131 -183 -125 -193 4 -8 71 -98 147 -200 l139
-186 125 167 c69 92 136 181 149 198 l23 31 -136 181 c-117 157 -140 182 -163
182 -22 -1 -46 -28 -159 -180z"/>
<path d="M4129 1256 c-72 -20 -145 -65 -198 -121 -99 -105 -142 -236 -144
-440 -1 -144 11 -210 53 -295 59 -118 167 -180 310 -180 101 0 172 26 240 87
76 68 103 128 108 239 6 124 -13 181 -82 249 -104 102 -276 122 -434 50 l-55
-25 7 50 c14 104 74 200 154 243 87 47 184 54 300 21 21 -6 22 -4 22 54 0 50
-3 63 -19 72 -27 14 -206 11 -262 -4z m118 -497 c34 -13 80 -55 99 -91 9 -17
14 -57 14 -106 0 -95 -29 -163 -87 -202 -32 -22 -48 -25 -118 -25 -74 0 -86 3
-123 29 -23 15 -51 45 -63 64 -42 73 -65 266 -35 292 8 6 36 20 63 30 55 22
203 27 250 9z"/>
</g>
</svg>
