<?xml version="1.0" standalone="no"?>
<!DOCTYPE svg PUBLIC "-//W3C//DTD SVG 20010904//EN"
 "http://www.w3.org/TR/2001/REC-SVG-20010904/DTD/svg10.dtd">
<svg version="1.0" xmlns="http://www.w3.org/2000/svg"
 width="500.000000pt" height="700.000000pt" viewBox="0 0 500.000000 700.000000"
 preserveAspectRatio="xMidYMid meet">
<metadata>
Created by potrace 1.16, written by Peter Selinger 2001-2019
</metadata>
<g transform="translate(0.000000,700.000000) scale(0.100000,-0.100000)"
fill="#000000" stroke="none">
<path d="M0 3500 l0 -3500 2500 0 2500 0 0 3500 0 3500 -2500 0 -2500 0 0
-3500z m4920 0 l0 -3420 -2420 0 -2420 0 0 3420 0 3420 2420 0 2420 0 0 -3420z"/>
<path d="M713 6759 c-67 -26 -147 -98 -180 -163 -36 -69 -44 -207 -18 -287 24
-71 101 -149 170 -172 112 -39 241 -30 345 23 l40 20 0 -22 c0 -30 -24 -118
-40 -148 -46 -87 -127 -144 -231 -161 -57 -9 -114 -4 -186 17 -22 6 -23 4 -23
-54 0 -81 8 -86 159 -80 105 4 123 7 184 35 169 80 262 238 282 483 20 255
-66 448 -228 509 -77 28 -200 28 -274 0z m238 -112 c80 -42 129 -159 129 -309
l0 -56 -52 -23 c-56 -25 -186 -37 -254 -25 -42 8 -102 59 -120 103 -21 50 -18
176 5 221 24 47 70 91 107 102 58 17 138 11 185 -13z"/>
<path d="M1315 5241 c-115 -53 -153 -204 -74 -296 9 -11 92 -121 184 -245 91
-124 168 -225 170 -225 3 0 79 101 171 225 91 124 174 234 183 245 43 50 53
127 26 193 -71 169 -317 157 -369 -19 l-13 -43 -7 37 c-9 46 -66 112 -114 133
-47 19 -109 17 -157 -5z"/>
<path d="M3125 5241 c-115 -53 -153 -204 -74 -296 9 -11 92 -121 184 -245 91
-124 168 -225 170 -225 3 0 79 101 171 225 91 124 174 234 183 245 43 50 53
127 26 193 -71 169 -317 157 -369 -19 l-13 -43 -7 37 c-9 46 -66 112 -114 133
-47 19 -109 17 -157 -5z"/>
<path d="M1257 4293 c-69 -73 -76 -188 -16 -258 9 -11 92 -121 184 -245 91
-124 168 -225 170 -225 3 0 79 101 171 225 91 124 174 234 183 245 60 70 53
186 -16 258 -26 26 -30 27 -139 27 l-112 0 -35 -39 c-21 -23 -39 -56 -43 -78
l-7 -37 -13 43 c-7 24 -27 59 -45 77 l-33 34 -111 0 c-108 0 -112 -1 -138 -27z"/>
<path d="M3067 4293 c-69 -73 -76 -188 -16 -258 9 -11 92 -121 184 -245 91
-124 168 -225 170 -225 3 0 79 101 171 225 91 124 174 234 183 245 60 70 53
186 -16 258 -26 26 -30 27 -139 27 l-112 0 -35 -39 c-21 -23 -39 -56 -43 -78
l-7 -37 -13 43 c-7 24 -27 59 -45 77 l-33 34 -111 0 c-108 0 -112 -1 -138 -27z"/>
<path d="M2220 3884 c-75 -32 -80 -44 -80 -176 l0 -119 171 -232 c94 -128 175
-235 178 -239 4 -5 43 40 86 100 44 59 126 169 182 245 l103 138 0 107 c0 105
-1 109 -27 135 -107 102 -286 56 -327 -84 l-13 -43 -7 37 c-9 46 -66 112 -114
133 -44 18 -107 17 -152 -2z"/>
<path d="M1390 3176 c-96 -129 -181 -252 -189 -273 -42 -115 59 -253 185 -253
61 0 139 43 169 94 14 24 25 54 26 67 l1 24 7 -25 c58 -190 285 -218 373 -46
15 30 19 53 16 97 -5 66 6 49 -211 339 -118 158 -159 206 -178 208 -21 2 -46
-27 -199 -232z"/>
<path d="M3253 3224 c-76 -103 -153 -205 -172 -228 -44 -54 -61 -95 -61 -151
0 -78 48 -148 122 -180 112 -46 230 17 269 145 l7 25 1 -24 c1 -13 12 -43 26
-67 30 -51 108 -94 169 -94 127 0 228 139 184 255 -8 22 -92 144 -187 270
-131 176 -177 231 -196 233 -21 3 -42 -22 -162 -184z"/>
<path d="M1390 2269 c-95 -128 -178 -247 -186 -265 -24 -58 -13 -128 30 -187
23 -32 109 -77 145 -77 96 0 200 84 201 162 1 15 7 6 20 -27 49 -126 193 -171
300 -94 77 56 102 164 58 246 -13 23 -96 138 -185 257 -132 176 -167 216 -186
216 -20 0 -56 -42 -197 -231z"/>
<path d="M3355 2457 c-16 -23 -88 -120 -160 -215 -71 -96 -140 -192 -152 -215
-46 -84 -21 -189 58 -247 106 -76 251 -31 299 95 13 33 19 42 20 27 1 -78 105
-162 201 -162 36 0 122 45 145 77 43 59 54 129 30 187 -8 18 -91 137 -186 265
-196 263 -200 266 -255 188z"/>
<path d="M4129 1256 c-72 -20 -145 -65 -198 -121 -99 -105 -142 -236 -144
-440 -1 -144 11 -210 53 -295 59 -118 167 -180 310 -180 101 0 172 26 240 87
76 68 103 128 108 239 6 124 -13 181 -82 249 -104 102 -276 122 -434 50 l-55
-25 7 50 c14 104 74 200 154 243 87 47 184 54 300 21 21 -6 22 -4 22 54 0 50
-3 63 -19 72 -27 14 -206 11 -262 -4z m118 -497 c34 -13 80 -55 99 -91 9 -17
14 -57 14 -106 0 -95 -29 -163 -87 -202 -32 -22 -48 -25 -118 -25 -74 0 -86 3
-123 29 -23 15 -51 45 -63 64 -42 73 -65 266 -35 292 8 6 36 20 63 30 55 22
203 27 250 9z"/>
</g>
</svg>
