<?xml version="1.0" standalone="no"?>
<!DOCTYPE svg PUBLIC "-//W3C//DTD SVG 20010904//EN"
 "http://www.w3.org/TR/2001/REC-SVG-20010904/DTD/svg10.dtd">
<svg version="1.0" xmlns="http://www.w3.org/2000/svg"
 width="500.000000pt" height="700.000000pt" viewBox="0 0 500.000000 700.000000"
 preserveAspectRatio="xMidYMid meet">
<metadata>
Created by potrace 1.16, written by Peter Selinger 2001-2019
</metadata>
<g transform="translate(0.000000,700.000000) scale(0.100000,-0.100000)"
fill="#000000" stroke="none">
<path d="M0 3500 l0 -3500 2500 0 2500 0 0 3500 0 3500 -2500 0 -2500 0 0
-3500z m4920 0 l0 -3420 -2420 0 -2420 0 0 3420 0 3420 2420 0 2420 0 0 -3420z"/>
<path d="M713 6759 c-67 -26 -147 -98 -180 -163 -36 -69 -44 -207 -18 -287 24
-71 101 -149 170 -172 112 -39 241 -30 345 23 l40 20 0 -22 c0 -30 -24 -118
-40 -148 -46 -87 -127 -144 -231 -161 -57 -9 -114 -4 -186 17 -22 6 -23 4 -23
-54 0 -81 8 -86 159 -80 105 4 123 7 184 35 169 80 262 238 282 483 20 255
-66 448 -228 509 -77 28 -200 28 -274 0z m238 -112 c80 -42 129 -159 129 -309
l0 -56 -52 -23 c-56 -25 -186 -37 -254 -25 -42 8 -102 59 -120 103 -21 50 -18
176 5 221 24 47 70 91 107 102 58 17 138 11 185 -13z"/>
<path d="M1414 5069 c-99 -104 -187 -205 -196 -222 -33 -61 -17 -160 35 -215
64 -69 176 -81 256 -29 l41 27 0 -89 c0 -81 2 -91 22 -105 19 -13 25 -14 43
-2 17 12 20 26 23 105 l3 91 40 -27 c79 -52 192 -40 256 29 52 55 68 154 35
215 -13 25 -368 413 -377 413 -1 0 -83 -86 -181 -191z"/>
<path d="M3224 5069 c-99 -104 -187 -205 -196 -222 -33 -61 -17 -160 35 -215
64 -69 176 -81 256 -29 l41 27 0 -89 c0 -81 2 -91 22 -105 19 -13 25 -14 43
-2 17 12 20 26 23 105 l3 91 40 -27 c79 -52 192 -40 256 29 52 55 68 154 35
215 -13 25 -368 413 -377 413 -1 0 -83 -86 -181 -191z"/>
<path d="M1400 4144 c-91 -96 -173 -190 -182 -207 -33 -61 -17 -160 35 -215
64 -69 176 -81 256 -29 l41 27 0 -89 c0 -81 2 -91 22 -105 19 -13 25 -14 43
-2 17 12 20 26 23 105 l3 91 40 -27 c79 -52 192 -40 256 29 52 55 68 154 35
215 -9 17 -91 111 -182 207 -144 155 -168 176 -195 176 -27 0 -51 -21 -195
-176z"/>
<path d="M3210 4144 c-91 -96 -173 -190 -182 -207 -33 -61 -17 -160 35 -215
64 -69 176 -81 256 -29 l41 27 0 -89 c0 -81 2 -91 22 -105 19 -13 25 -14 43
-2 17 12 20 26 23 105 l3 91 40 -27 c79 -52 192 -40 256 29 52 55 68 154 35
215 -9 17 -91 111 -182 207 -144 155 -168 176 -195 176 -27 0 -51 -21 -195
-176z"/>
<path d="M2318 3714 l-178 -189 0 -57 c0 -51 -2 -58 -20 -58 -25 0 -26 -26 -5
-78 49 -115 189 -158 294 -89 l41 27 0 -89 c0 -81 2 -91 22 -105 19 -13 25
-14 43 -2 17 12 20 26 23 105 l3 91 40 -27 c79 -52 192 -40 256 29 44 46 69
138 38 138 -11 0 -15 12 -15 51 0 57 25 26 -277 348 l-88 93 -177 -188z"/>
<path d="M1540 3343 c0 -62 -1 -65 -17 -51 -79 69 -209 62 -280 -14 -50 -53
-66 -138 -38 -204 8 -19 97 -122 197 -229 l183 -195 65 67 c36 38 118 124 183
192 l117 124 0 112 c0 109 -1 113 -27 140 -71 71 -199 74 -270 6 l-23 -22 0
71 0 70 -45 0 -45 0 0 -67z"/>
<path d="M3370 3340 l0 -71 -22 22 c-33 31 -81 49 -133 49 -58 0 -102 -18
-142 -60 -33 -34 -33 -34 -33 -135 l0 -101 122 -130 c68 -71 152 -159 188
-196 l65 -68 180 191 c99 105 188 208 197 228 32 66 17 154 -35 209 -71 76
-201 83 -279 14 -17 -14 -18 -11 -18 51 l0 67 -45 0 -45 0 0 -70z"/>
<path d="M1540 2434 l0 -65 -35 27 c-66 50 -180 45 -242 -9 -66 -58 -90 -148
-58 -224 8 -19 94 -118 192 -222 97 -102 179 -189 183 -194 8 -9 358 362 383
406 24 44 22 120 -4 175 -32 65 -94 102 -174 102 -51 0 -69 -5 -108 -30 l-47
-30 0 65 0 65 -45 0 -45 0 0 -66z"/>
<path d="M3370 2435 l0 -65 -47 30 c-99 63 -233 28 -282 -72 -24 -50 -27 -127
-8 -170 7 -14 95 -114 195 -221 l184 -195 97 101 c53 56 136 143 184 194 93
98 117 139 117 200 -1 82 -73 175 -145 189 -63 11 -131 -1 -170 -30 l-35 -27
0 65 0 66 -45 0 -45 0 0 -65z"/>
<path d="M4129 1256 c-72 -20 -145 -65 -198 -121 -99 -105 -142 -236 -144
-440 -1 -144 11 -210 53 -295 59 -118 167 -180 310 -180 101 0 172 26 240 87
76 68 103 128 108 239 6 124 -13 181 -82 249 -104 102 -276 122 -434 50 l-55
-25 7 50 c14 104 74 200 154 243 87 47 184 54 300 21 21 -6 22 -4 22 54 0 50
-3 63 -19 72 -27 14 -206 11 -262 -4z m118 -497 c34 -13 80 -55 99 -91 9 -17
14 -57 14 -106 0 -95 -29 -163 -87 -202 -32 -22 -48 -25 -118 -25 -74 0 -86 3
-123 29 -23 15 -51 45 -63 64 -42 73 -65 266 -35 292 8 6 36 20 63 30 55 22
203 27 250 9z"/>
</g>
</svg>
