<?xml version="1.0" standalone="no"?>
<!DOCTYPE svg PUBLIC "-//W3C//DTD SVG 20010904//EN"
 "http://www.w3.org/TR/2001/REC-SVG-20010904/DTD/svg10.dtd">
<svg version="1.0" xmlns="http://www.w3.org/2000/svg"
 width="500.000000pt" height="700.000000pt" viewBox="0 0 500.000000 700.000000"
 preserveAspectRatio="xMidYMid meet">
<metadata>
Created by potrace 1.16, written by Peter Selinger 2001-2019
</metadata>
<g transform="translate(0.000000,700.000000) scale(0.100000,-0.100000)"
fill="#000000" stroke="none">
<path d="M0 3500 l0 -3500 2500 0 2500 0 0 3500 0 3500 -2500 0 -2500 0 0
-3500z m4920 0 l0 -3420 -2420 0 -2420 0 0 3420 0 3420 2420 0 2420 0 0 -3420z"/>
<path d="M702 6708 l3 -53 108 -3 108 -3 -3 -352 c-3 -391 -2 -386 -71 -427
-39 -24 -150 -27 -220 -6 -25 7 -48 11 -51 8 -4 -3 -6 -31 -6 -63 0 -67 -4
-64 135 -75 129 -9 201 12 271 80 35 34 56 65 63 91 7 26 11 185 11 448 l0
407 -176 0 -175 0 3 -52z"/>
<path d="M3759 6212 c-125 -65 -158 -234 -67 -338 l30 -34 -36 15 c-133 56
-296 -59 -296 -209 0 -46 21 -102 52 -141 84 -101 233 -107 327 -14 l41 41 0
-140 c0 -114 3 -143 16 -156 21 -22 50 -20 74 4 18 18 20 33 20 150 l0 131 37
-36 c44 -43 124 -69 180 -59 181 33 254 237 132 369 -63 68 -158 92 -237 60
l-37 -16 27 28 c73 76 78 201 11 290 -14 18 -48 43 -76 58 -69 34 -129 33
-198 -3z"/>
<path d="M2418 3878 l-3 -843 -25 -50 c-19 -38 -36 -56 -70 -73 -41 -22 -54
-23 -155 -19 -72 3 -132 12 -175 26 -36 11 -66 21 -67 21 -2 0 -3 -58 -3 -129
l0 -129 93 -18 c122 -23 327 -24 420 -1 181 45 275 140 329 334 22 77 22 90
26 901 l3 822 -185 0 -186 0 -2 -842z"/>
<path d="M1102 1758 c-8 -8 -12 -56 -12 -152 l0 -140 -37 36 c-95 93 -224 92
-314 -2 -77 -79 -87 -181 -27 -278 31 -51 111 -92 180 -92 31 0 69 5 84 10
l26 10 -30 -35 c-70 -79 -68 -199 4 -284 103 -120 310 -87 372 59 30 72 11
182 -41 238 l-22 23 28 -10 c41 -16 122 -13 165 5 114 47 165 185 111 300 -35
72 -118 124 -201 124 -53 0 -137 -38 -166 -75 l-22 -28 0 129 c0 101 -3 134
-16 152 -17 24 -62 30 -82 10z"/>
<path d="M4157 1260 c-92 -24 -177 -96 -197 -169 -6 -21 -10 -205 -10 -443 l0
-408 176 0 175 0 -3 53 -3 52 -108 3 -108 3 3 347 c3 377 4 384 61 426 37 27
154 34 226 13 27 -8 53 -12 56 -9 3 3 5 31 5 63 0 51 -2 57 -23 63 -45 11
-213 15 -250 6z"/>
</g>
</svg>
