<?xml version="1.0" standalone="no"?>
<!DOCTYPE svg PUBLIC "-//W3C//DTD SVG 20010904//EN"
 "http://www.w3.org/TR/2001/REC-SVG-20010904/DTD/svg10.dtd">
<svg version="1.0" xmlns="http://www.w3.org/2000/svg"
 width="500.000000pt" height="700.000000pt" viewBox="0 0 500.000000 700.000000"
 preserveAspectRatio="xMidYMid meet">
<metadata>
Created by potrace 1.16, written by Peter Selinger 2001-2019
</metadata>
<g transform="translate(0.000000,700.000000) scale(0.100000,-0.100000)"
fill="#000000" stroke="none">
<path d="M0 3500 l0 -3500 2500 0 2500 0 0 3500 0 3500 -2500 0 -2500 0 0
-3500z m4920 0 l0 -3420 -2420 0 -2420 0 0 3420 0 3420 2420 0 2420 0 0 -3420z"/>
<path d="M702 6708 l3 -53 108 -3 108 -3 -3 -352 c-3 -391 -2 -386 -71 -427
-39 -24 -150 -27 -220 -6 -25 7 -48 11 -51 8 -4 -3 -6 -31 -6 -63 0 -67 -4
-64 135 -75 129 -9 201 12 271 80 35 34 56 65 63 91 7 26 11 185 11 448 l0
407 -176 0 -175 0 3 -52z"/>
<path d="M3505 6236 c-89 -42 -134 -117 -135 -221 0 -79 9 -95 205 -356 88
-118 187 -251 220 -296 33 -45 62 -82 65 -82 3 0 32 37 65 82 33 45 132 178
220 296 195 260 205 277 205 353 0 144 -101 248 -243 248 -69 0 -120 -19 -165
-63 -36 -34 -72 -96 -72 -122 0 -8 -4 -15 -10 -15 -5 0 -10 7 -10 15 0 26 -36
88 -72 122 -70 67 -180 83 -273 39z"/>
<path d="M2418 3878 l-3 -843 -25 -50 c-19 -38 -36 -56 -70 -73 -41 -22 -54
-23 -155 -19 -72 3 -132 12 -175 26 -36 11 -66 21 -67 21 -2 0 -3 -58 -3 -129
l0 -129 93 -18 c122 -23 327 -24 420 -1 181 45 275 140 329 334 22 77 22 90
26 901 l3 822 -185 0 -186 0 -2 -842z"/>
<path d="M965 1477 c-98 -133 -203 -272 -233 -310 -30 -37 -60 -84 -68 -105
-41 -115 11 -247 121 -305 57 -30 164 -30 222 1 53 28 103 87 124 148 12 34
18 42 18 25 1 -36 50 -118 87 -146 154 -118 367 -30 399 162 9 57 -16 138 -58
188 -18 22 -124 162 -234 312 l-200 271 -178 -241z"/>
<path d="M4157 1260 c-92 -24 -177 -96 -197 -169 -6 -21 -10 -205 -10 -443 l0
-408 176 0 175 0 -3 53 -3 52 -108 3 -108 3 3 347 c3 377 4 384 61 426 37 27
154 34 226 13 27 -8 53 -12 56 -9 3 3 5 31 5 63 0 51 -2 57 -23 63 -45 11
-213 15 -250 6z"/>
</g>
</svg>
