<?xml version="1.0" standalone="no"?>
<!DOCTYPE svg PUBLIC "-//W3C//DTD SVG 20010904//EN"
 "http://www.w3.org/TR/2001/REC-SVG-20010904/DTD/svg10.dtd">
<svg version="1.0" xmlns="http://www.w3.org/2000/svg"
 width="500.000000pt" height="700.000000pt" viewBox="0 0 500.000000 700.000000"
 preserveAspectRatio="xMidYMid meet">
<metadata>
Created by potrace 1.16, written by Peter Selinger 2001-2019
</metadata>
<g transform="translate(0.000000,700.000000) scale(0.100000,-0.100000)"
fill="#000000" stroke="none">
<path d="M0 3500 l0 -3500 2500 0 2500 0 0 3500 0 3500 -2500 0 -2500 0 0
-3500z m4920 0 l0 -3420 -2420 0 -2420 0 0 3420 0 3420 2420 0 2420 0 0 -3420z"/>
<path d="M702 6708 l3 -53 108 -3 108 -3 -3 -352 c-3 -391 -2 -386 -71 -427
-39 -24 -150 -27 -220 -6 -25 7 -48 11 -51 8 -4 -3 -6 -31 -6 -63 0 -67 -4
-64 135 -75 129 -9 201 12 271 80 35 34 56 65 63 91 7 26 11 185 11 448 l0
407 -176 0 -175 0 3 -52z"/>
<path d="M3810 6213 c-24 -26 -124 -132 -222 -236 -110 -115 -187 -204 -198
-230 -26 -55 -26 -148 -1 -203 69 -151 274 -191 394 -77 l27 27 0 -121 c0 -97
3 -125 16 -137 21 -22 50 -20 74 4 18 18 20 33 20 131 l0 111 30 -25 c69 -58
190 -73 267 -33 44 22 93 74 114 121 25 53 24 147 0 201 -12 26 -105 132 -240
275 -122 129 -226 235 -230 237 -4 1 -27 -19 -51 -45z"/>
<path d="M2418 3878 l-3 -843 -25 -50 c-19 -38 -36 -56 -70 -73 -41 -22 -54
-23 -155 -19 -72 3 -132 12 -175 26 -36 11 -66 21 -67 21 -2 0 -3 -58 -3 -129
l0 -129 93 -18 c122 -23 327 -24 420 -1 181 45 275 140 329 334 22 77 22 90
26 901 l3 822 -185 0 -186 0 -2 -842z"/>
<path d="M1102 1758 c-8 -8 -12 -52 -12 -132 l0 -119 -22 20 c-46 41 -107 64
-173 65 -176 1 -297 -181 -225 -340 12 -27 102 -130 246 -283 180 -190 230
-237 239 -227 48 52 238 252 325 343 150 154 178 218 146 329 -20 69 -73 131
-135 159 -84 37 -201 19 -263 -40 l-28 -27 0 110 c0 83 -4 115 -16 132 -17 24
-62 30 -82 10z"/>
<path d="M4157 1260 c-92 -24 -177 -96 -197 -169 -6 -21 -10 -205 -10 -443 l0
-408 176 0 175 0 -3 53 -3 52 -108 3 -108 3 3 347 c3 377 4 384 61 426 37 27
154 34 226 13 27 -8 53 -12 56 -9 3 3 5 31 5 63 0 51 -2 57 -23 63 -45 11
-213 15 -250 6z"/>
</g>
</svg>
