<?xml version="1.0" standalone="no"?>
<!DOCTYPE svg PUBLIC "-//W3C//DTD SVG 20010904//EN"
 "http://www.w3.org/TR/2001/REC-SVG-20010904/DTD/svg10.dtd">
<svg version="1.0" xmlns="http://www.w3.org/2000/svg"
 width="500.000000pt" height="700.000000pt" viewBox="0 0 500.000000 700.000000"
 preserveAspectRatio="xMidYMid meet">
<metadata>
Created by potrace 1.16, written by Peter Selinger 2001-2019
</metadata>
<g transform="translate(0.000000,700.000000) scale(0.100000,-0.100000)"
fill="#000000" stroke="none">
<path d="M0 3500 l0 -3500 2500 0 2500 0 0 3500 0 3500 -2500 0 -2500 0 0
-3500z m4920 0 l0 -3420 -2420 0 -2420 0 0 3420 0 3420 2420 0 2420 0 0 -3420z"/>
<path d="M520 6250 l0 -510 65 0 65 0 0 173 1 172 52 58 52 58 204 -231 203
-230 84 0 c46 0 84 2 84 5 0 2 -106 125 -235 272 l-235 267 28 30 c15 17 114
122 220 232 106 111 192 204 192 208 0 3 -35 6 -78 6 l-77 0 -240 -259 c-132
-143 -243 -260 -247 -260 -5 -1 -8 116 -8 259 l0 260 -65 0 -65 0 0 -510z"/>
<path d="M3759 6212 c-125 -65 -158 -234 -67 -338 l30 -34 -36 15 c-133 56
-296 -59 -296 -209 0 -46 21 -102 52 -141 84 -101 233 -107 327 -14 l41 41 0
-140 c0 -114 3 -143 16 -156 21 -22 50 -20 74 4 18 18 20 33 20 150 l0 131 37
-36 c44 -43 124 -69 180 -59 181 33 254 237 132 369 -63 68 -158 92 -237 60
l-37 -16 27 28 c73 76 78 201 11 290 -14 18 -48 43 -76 58 -69 34 -129 33
-198 -3z"/>
<path d="M1870 3855 l0 -865 170 0 170 0 2 426 3 427 79 -104 c44 -57 192
-249 329 -426 l248 -323 226 0 c179 0 223 3 215 13 -9 11 -238 306 -578 742
-77 99 -144 186 -148 193 -5 8 95 144 276 377 156 201 289 375 297 385 13 20
10 20 -136 20 l-149 0 -160 -202 c-87 -111 -204 -259 -259 -329 -55 -69 -131
-166 -170 -215 l-70 -89 -3 418 -2 417 -170 0 -170 0 0 -865z"/>
<path d="M1102 1758 c-8 -8 -12 -56 -12 -152 l0 -140 -37 36 c-95 93 -224 92
-314 -2 -77 -79 -87 -181 -27 -278 31 -51 111 -92 180 -92 31 0 69 5 84 10
l26 10 -30 -35 c-70 -79 -68 -199 4 -284 103 -120 310 -87 372 59 30 72 11
182 -41 238 l-22 23 28 -10 c41 -16 122 -13 165 5 114 47 165 185 111 300 -35
72 -118 124 -201 124 -53 0 -137 -38 -166 -75 l-22 -28 0 129 c0 101 -3 134
-16 152 -17 24 -62 30 -82 10z"/>
<path d="M3670 1255 c0 -3 100 -118 223 -256 122 -138 227 -258 234 -268 14
-19 32 1 -242 -286 l-190 -200 80 -3 80 -3 75 81 c41 45 149 161 240 260 91
98 168 179 173 179 4 1 7 -116 7 -259 l0 -260 65 0 65 0 0 510 0 510 -65 0
-65 0 0 -172 0 -173 -53 -58 -52 -57 -203 230 -204 230 -84 0 c-46 0 -84 -2
-84 -5z"/>
</g>
</svg>
