<?xml version="1.0" standalone="no"?>
<!DOCTYPE svg PUBLIC "-//W3C//DTD SVG 20010904//EN"
 "http://www.w3.org/TR/2001/REC-SVG-20010904/DTD/svg10.dtd">
<svg version="1.0" xmlns="http://www.w3.org/2000/svg"
 width="500.000000pt" height="700.000000pt" viewBox="0 0 500.000000 700.000000"
 preserveAspectRatio="xMidYMid meet">
<metadata>
Created by potrace 1.16, written by Peter Selinger 2001-2019
</metadata>
<g transform="translate(0.000000,700.000000) scale(0.100000,-0.100000)"
fill="#000000" stroke="none">
<path d="M0 3500 l0 -3500 2500 0 2500 0 0 3500 0 3500 -2500 0 -2500 0 0
-3500z m4920 0 l0 -3420 -2420 0 -2420 0 0 3420 0 3420 2420 0 2420 0 0 -3420z"/>
<path d="M520 6250 l0 -510 65 0 65 0 0 173 1 172 52 58 52 58 204 -231 203
-230 84 0 c46 0 84 2 84 5 0 2 -106 125 -235 272 l-235 267 28 30 c15 17 114
122 220 232 106 111 192 204 192 208 0 3 -35 6 -78 6 l-77 0 -240 -259 c-132
-143 -243 -260 -247 -260 -5 -1 -8 116 -8 259 l0 260 -65 0 -65 0 0 -510z"/>
<path d="M3672 6015 l-182 -245 182 -245 c101 -134 185 -244 188 -244 3 0 87
110 188 244 l182 245 -182 245 c-101 134 -185 244 -188 244 -3 0 -87 -110
-188 -244z"/>
<path d="M1870 3855 l0 -865 170 0 170 0 2 426 3 427 79 -104 c44 -57 192
-249 329 -426 l248 -323 226 0 c179 0 223 3 215 13 -9 11 -238 306 -578 742
-77 99 -144 186 -148 193 -5 8 95 144 276 377 156 201 289 375 297 385 13 20
10 20 -136 20 l-149 0 -160 -202 c-87 -111 -204 -259 -259 -329 -55 -69 -131
-166 -170 -215 l-70 -89 -3 418 -2 417 -170 0 -170 0 0 -865z"/>
<path d="M962 1477 c-100 -133 -182 -246 -182 -252 -1 -5 81 -119 181 -253
l181 -242 185 246 184 245 -17 26 c-9 14 -92 126 -184 249 l-167 223 -181
-242z"/>
<path d="M3670 1255 c0 -3 100 -118 223 -256 122 -138 227 -258 234 -268 14
-19 32 1 -242 -286 l-190 -200 80 -3 80 -3 75 81 c41 45 149 161 240 260 91
98 168 179 173 179 4 1 7 -116 7 -259 l0 -260 65 0 65 0 0 510 0 510 -65 0
-65 0 0 -172 0 -173 -53 -58 -52 -57 -203 230 -204 230 -84 0 c-46 0 -84 -2
-84 -5z"/>
</g>
</svg>
