<?xml version="1.0" standalone="no"?>
<!DOCTYPE svg PUBLIC "-//W3C//DTD SVG 20010904//EN"
 "http://www.w3.org/TR/2001/REC-SVG-20010904/DTD/svg10.dtd">
<svg version="1.0" xmlns="http://www.w3.org/2000/svg"
 width="500.000000pt" height="700.000000pt" viewBox="0 0 500.000000 700.000000"
 preserveAspectRatio="xMidYMid meet">
<metadata>
Created by potrace 1.16, written by Peter Selinger 2001-2019
</metadata>
<g transform="translate(0.000000,700.000000) scale(0.100000,-0.100000)"
fill="#000000" stroke="none">
<path d="M0 3500 l0 -3500 2500 0 2500 0 0 3500 0 3500 -2500 0 -2500 0 0
-3500z m4920 0 l0 -3420 -2420 0 -2420 0 0 3420 0 3420 2420 0 2420 0 0 -3420z"/>
<path d="M520 6250 l0 -510 65 0 65 0 0 173 1 172 52 58 52 58 204 -231 203
-230 84 0 c46 0 84 2 84 5 0 2 -106 125 -235 272 l-235 267 28 30 c15 17 114
122 220 232 106 111 192 204 192 208 0 3 -35 6 -78 6 l-77 0 -240 -259 c-132
-143 -243 -260 -247 -260 -5 -1 -8 116 -8 259 l0 260 -65 0 -65 0 0 -510z"/>
<path d="M3505 6236 c-89 -42 -134 -117 -135 -221 0 -79 9 -95 205 -356 88
-118 187 -251 220 -296 33 -45 62 -82 65 -82 3 0 32 37 65 82 33 45 132 178
220 296 195 260 205 277 205 353 0 144 -101 248 -243 248 -69 0 -120 -19 -165
-63 -36 -34 -72 -96 -72 -122 0 -8 -4 -15 -10 -15 -5 0 -10 7 -10 15 0 26 -36
88 -72 122 -70 67 -180 83 -273 39z"/>
<path d="M1870 3855 l0 -865 170 0 170 0 2 426 3 427 79 -104 c44 -57 192
-249 329 -426 l248 -323 226 0 c179 0 223 3 215 13 -9 11 -238 306 -578 742
-77 99 -144 186 -148 193 -5 8 95 144 276 377 156 201 289 375 297 385 13 20
10 20 -136 20 l-149 0 -160 -202 c-87 -111 -204 -259 -259 -329 -55 -69 -131
-166 -170 -215 l-70 -89 -3 418 -2 417 -170 0 -170 0 0 -865z"/>
<path d="M965 1477 c-98 -133 -203 -272 -233 -310 -30 -37 -60 -84 -68 -105
-41 -115 11 -247 121 -305 57 -30 164 -30 222 1 53 28 103 87 124 148 12 34
18 42 18 25 1 -36 50 -118 87 -146 154 -118 367 -30 399 162 9 57 -16 138 -58
188 -18 22 -124 162 -234 312 l-200 271 -178 -241z"/>
<path d="M3670 1255 c0 -3 100 -118 223 -256 122 -138 227 -258 234 -268 14
-19 32 1 -242 -286 l-190 -200 80 -3 80 -3 75 81 c41 45 149 161 240 260 91
98 168 179 173 179 4 1 7 -116 7 -259 l0 -260 65 0 65 0 0 510 0 510 -65 0
-65 0 0 -172 0 -173 -53 -58 -52 -57 -203 230 -204 230 -84 0 c-46 0 -84 -2
-84 -5z"/>
</g>
</svg>
