<?xml version="1.0" standalone="no"?>
<!DOCTYPE svg PUBLIC "-//W3C//DTD SVG 20010904//EN"
 "http://www.w3.org/TR/2001/REC-SVG-20010904/DTD/svg10.dtd">
<svg version="1.0" xmlns="http://www.w3.org/2000/svg"
 width="500.000000pt" height="700.000000pt" viewBox="0 0 500.000000 700.000000"
 preserveAspectRatio="xMidYMid meet">
<metadata>
Created by potrace 1.16, written by Peter Selinger 2001-2019
</metadata>
<g transform="translate(0.000000,700.000000) scale(0.100000,-0.100000)"
fill="#000000" stroke="none">
<path d="M0 3500 l0 -3500 2500 0 2500 0 0 3500 0 3500 -2500 0 -2500 0 0
-3500z m4920 0 l0 -3420 -2420 0 -2420 0 0 3420 0 3420 2420 0 2420 0 0 -3420z"/>
<path d="M520 6250 l0 -510 65 0 65 0 0 173 1 172 52 58 52 58 204 -231 203
-230 84 0 c46 0 84 2 84 5 0 2 -106 125 -235 272 l-235 267 28 30 c15 17 114
122 220 232 106 111 192 204 192 208 0 3 -35 6 -78 6 l-77 0 -240 -259 c-132
-143 -243 -260 -247 -260 -5 -1 -8 116 -8 259 l0 260 -65 0 -65 0 0 -510z"/>
<path d="M3810 6213 c-24 -26 -124 -132 -222 -236 -110 -115 -187 -204 -198
-230 -26 -55 -26 -148 -1 -203 69 -151 274 -191 394 -77 l27 27 0 -121 c0 -97
3 -125 16 -137 21 -22 50 -20 74 4 18 18 20 33 20 131 l0 111 30 -25 c69 -58
190 -73 267 -33 44 22 93 74 114 121 25 53 24 147 0 201 -12 26 -105 132 -240
275 -122 129 -226 235 -230 237 -4 1 -27 -19 -51 -45z"/>
<path d="M1870 3855 l0 -865 170 0 170 0 2 426 3 427 79 -104 c44 -57 192
-249 329 -426 l248 -323 226 0 c179 0 223 3 215 13 -9 11 -238 306 -578 742
-77 99 -144 186 -148 193 -5 8 95 144 276 377 156 201 289 375 297 385 13 20
10 20 -136 20 l-149 0 -160 -202 c-87 -111 -204 -259 -259 -329 -55 -69 -131
-166 -170 -215 l-70 -89 -3 418 -2 417 -170 0 -170 0 0 -865z"/>
<path d="M1102 1758 c-8 -8 -12 -52 -12 -132 l0 -119 -22 20 c-46 41 -107 64
-173 65 -176 1 -297 -181 -225 -340 12 -27 102 -130 246 -283 180 -190 230
-237 239 -227 48 52 238 252 325 343 150 154 178 218 146 329 -20 69 -73 131
-135 159 -84 37 -201 19 -263 -40 l-28 -27 0 110 c0 83 -4 115 -16 132 -17 24
-62 30 -82 10z"/>
<path d="M3670 1255 c0 -3 100 -118 223 -256 122 -138 227 -258 234 -268 14
-19 32 1 -242 -286 l-190 -200 80 -3 80 -3 75 81 c41 45 149 161 240 260 91
98 168 179 173 179 4 1 7 -116 7 -259 l0 -260 65 0 65 0 0 510 0 510 -65 0
-65 0 0 -172 0 -173 -53 -58 -52 -57 -203 230 -204 230 -84 0 c-46 0 -84 -2
-84 -5z"/>
</g>
</svg>
