<?xml version="1.0" standalone="no"?>
<!DOCTYPE svg PUBLIC "-//W3C//DTD SVG 20010904//EN"
 "http://www.w3.org/TR/2001/REC-SVG-20010904/DTD/svg10.dtd">
<svg version="1.0" xmlns="http://www.w3.org/2000/svg"
 width="508.000000pt" height="708.000000pt" viewBox="0 0 508.000000 708.000000"
 preserveAspectRatio="xMidYMid meet">
<metadata>
Created by potrace 1.16, written by Peter Selinger 2001-2019
</metadata>
<g transform="translate(0.000000,708.000000) scale(0.100000,-0.100000)"
fill="#000000" stroke="none">
<path d="M20 3535 l0 -3525 2525 0 2525 0 0 3525 0 3525 -2525 0 -2525 0 0
-3525z m5000 0 l0 -3475 -2475 0 -2475 0 0 3475 0 3475 2475 0 2475 0 0 -3475z"/>
<path d="M2485 4528 c-100 -55 -121 -168 -47 -250 l35 -39 -67 -108 c-225
-368 -351 -701 -378 -995 l-3 -30 -60 53 c-140 123 -341 228 -499 261 -50 10
-58 15 -70 44 -39 95 -179 122 -248 49 -37 -40 -48 -66 -48 -115 0 -128 151
-198 254 -117 l27 21 38 -27 c58 -40 163 -152 209 -223 80 -123 142 -326 142
-462 0 -28 4 -50 9 -50 5 0 33 16 62 36 361 243 885 273 1284 72 44 -22 101
-55 128 -74 26 -19 52 -34 57 -34 6 0 10 20 10 44 0 104 47 292 100 396 50 99
151 219 242 286 l48 36 26 -21 c39 -30 93 -43 136 -31 129 36 160 194 53 276
-75 57 -195 25 -231 -62 -11 -27 -21 -34 -51 -40 -55 -10 -199 -62 -268 -96
-80 -41 -222 -138 -264 -182 -19 -20 -39 -36 -43 -36 -4 0 -8 21 -8 46 0 58
-33 220 -66 327 -56 178 -163 404 -295 623 l-79 132 34 34 c104 104 35 269
-111 268 -21 0 -47 -6 -58 -12z"/>
</g>
</svg>
