<?xml version="1.0" standalone="no"?>
<!DOCTYPE svg PUBLIC "-//W3C//DTD SVG 20010904//EN"
 "http://www.w3.org/TR/2001/REC-SVG-20010904/DTD/svg10.dtd">
<svg version="1.0" xmlns="http://www.w3.org/2000/svg"
 width="508.000000pt" height="708.000000pt" viewBox="0 0 508.000000 708.000000"
 preserveAspectRatio="xMidYMid meet">
<metadata>
Created by potrace 1.16, written by Peter Selinger 2001-2019
</metadata>
<g transform="translate(0.000000,708.000000) scale(0.100000,-0.100000)"
fill="#000000" stroke="none">
<path d="M20 3535 l0 -3525 2525 0 2525 0 0 3525 0 3525 -2525 0 -2525 0 0
-3525z m5000 0 l0 -3475 -2475 0 -2475 0 0 3475 0 3475 2475 0 2475 0 0 -3475z"/>
<path d="M2481 4518 c-95 -51 -110 -174 -30 -247 l31 -28 -64 -104 c-225 -364
-378 -766 -378 -990 0 -27 -3 -49 -6 -49 -3 0 -40 29 -83 64 -86 71 -157 119
-248 165 -93 46 -157 69 -274 95 -16 3 -29 15 -33 28 -15 54 -79 98 -143 98
-57 0 -104 -29 -130 -80 -29 -56 -29 -86 0 -140 47 -89 157 -108 233 -38 21
19 21 18 82 -27 191 -144 311 -372 338 -642 3 -40 8 -73 10 -73 2 0 32 18 66
41 306 198 713 252 1076 143 107 -32 213 -81 302 -138 39 -25 72 -46 75 -46 2
0 6 26 10 58 30 288 128 484 318 640 63 51 70 55 90 42 99 -62 178 -51 241 32
28 39 27 113 -2 160 -59 95 -213 88 -259 -12 -12 -27 -26 -42 -43 -46 -195
-44 -371 -133 -530 -268 -71 -60 -80 -59 -80 10 0 104 -62 330 -142 524 -49
118 -147 307 -227 438 -34 54 -61 103 -61 109 0 5 12 20 26 34 58 54 71 131
32 189 -52 76 -123 97 -197 58z"/>
</g>
</svg>
