<?xml version="1.0" standalone="no"?>
<!DOCTYPE svg PUBLIC "-//W3C//DTD SVG 20010904//EN"
 "http://www.w3.org/TR/2001/REC-SVG-20010904/DTD/svg10.dtd">
<svg version="1.0" xmlns="http://www.w3.org/2000/svg"
 width="500.000000pt" height="700.000000pt" viewBox="0 0 500.000000 700.000000"
 preserveAspectRatio="xMidYMid meet">
<metadata>
Created by potrace 1.16, written by Peter Selinger 2001-2019
</metadata>
<g transform="translate(0.000000,700.000000) scale(0.100000,-0.100000)"
fill="#000000" stroke="none">
<path d="M0 3500 l0 -3500 2500 0 2500 0 0 3500 0 3500 -2500 0 -2500 0 0
-3500z m4920 0 l0 -3420 -2420 0 -2420 0 0 3420 0 3420 2420 0 2420 0 0 -3420z"/>
<path d="M790 6779 c-210 -30 -346 -167 -386 -389 -48 -268 42 -511 227 -610
68 -36 202 -64 260 -55 l36 6 7 -50 c9 -71 57 -138 125 -173 48 -25 63 -28
145 -27 50 1 105 4 121 8 29 6 30 8 33 70 3 62 3 63 -20 57 -49 -15 -183 -17
-207 -4 -36 19 -62 60 -68 104 -5 40 -5 40 56 78 98 60 170 166 202 296 19 78
17 269 -5 350 -33 126 -117 240 -213 288 -87 45 -215 66 -313 51z m208 -139
c107 -48 173 -151 192 -303 21 -167 -16 -320 -96 -402 -66 -69 -120 -89 -229
-89 -107 0 -144 14 -213 79 -93 86 -135 242 -113 412 14 115 50 191 118 253
30 28 58 50 61 50 4 1 30 7 57 15 64 19 161 12 223 -15z"/>
<path d="M3759 6212 c-125 -65 -158 -234 -67 -338 l30 -34 -36 15 c-133 56
-296 -59 -296 -209 0 -46 21 -102 52 -141 84 -101 233 -107 327 -14 l41 41 0
-140 c0 -114 3 -143 16 -156 21 -22 50 -20 74 4 18 18 20 33 20 150 l0 131 37
-36 c44 -43 124 -69 180 -59 181 33 254 237 132 369 -63 68 -158 92 -237 60
l-37 -16 27 28 c73 76 78 201 11 290 -14 18 -48 43 -76 58 -69 34 -129 33
-198 -3z"/>
<path d="M2355 4759 c-265 -34 -480 -168 -605 -379 -80 -134 -118 -274 -127
-467 -15 -318 73 -564 268 -748 157 -149 340 -215 595 -215 l121 0 135 -70
c150 -78 332 -150 512 -204 l120 -35 113 111 c62 62 113 115 113 119 0 4 -30
10 -67 14 -137 14 -581 118 -603 142 -3 3 3 10 13 17 127 78 221 160 279 244
186 268 209 730 53 1042 -40 82 -128 192 -198 250 -71 59 -214 132 -302 154
-134 34 -281 42 -420 25z m260 -244 c126 -33 234 -126 298 -259 62 -127 71
-178 72 -396 0 -174 -2 -203 -23 -275 -35 -121 -84 -205 -162 -279 -97 -91
-150 -110 -305 -111 -114 0 -123 2 -185 31 -215 102 -335 394 -302 735 20 196
76 336 179 441 107 109 273 153 428 113z"/>
<path d="M1102 1758 c-8 -8 -12 -56 -12 -152 l0 -140 -37 36 c-95 93 -224 92
-314 -2 -77 -79 -87 -181 -27 -278 31 -51 111 -92 180 -92 31 0 69 5 84 10
l26 10 -30 -35 c-70 -79 -68 -199 4 -284 103 -120 310 -87 372 59 30 72 11
182 -41 238 l-22 23 28 -10 c41 -16 122 -13 165 5 114 47 165 185 111 300 -35
72 -118 124 -201 124 -53 0 -137 -38 -166 -75 l-22 -28 0 129 c0 101 -3 134
-16 152 -17 24 -62 30 -82 10z"/>
<path d="M3675 1512 c-29 -7 -30 -9 -33 -71 l-3 -64 28 7 c61 15 178 17 202 4
35 -19 62 -60 68 -104 5 -39 4 -39 -61 -82 -99 -65 -165 -163 -197 -292 -19
-79 -17 -269 5 -350 59 -219 222 -343 451 -343 246 0 417 145 460 390 50 279
-48 532 -242 623 -59 28 -195 53 -244 45 l-36 -6 -5 46 c-8 64 -53 133 -112
170 -46 28 -57 30 -150 32 -56 1 -114 -2 -131 -5z m545 -363 c97 -22 182 -106
221 -219 32 -94 32 -277 0 -369 -44 -125 -123 -200 -236 -221 -156 -29 -297
40 -359 179 -48 108 -54 311 -12 429 57 158 214 240 386 201z"/>
</g>
</svg>
