<?xml version="1.0" standalone="no"?>
<!DOCTYPE svg PUBLIC "-//W3C//DTD SVG 20010904//EN"
 "http://www.w3.org/TR/2001/REC-SVG-20010904/DTD/svg10.dtd">
<svg version="1.0" xmlns="http://www.w3.org/2000/svg"
 width="500.000000pt" height="700.000000pt" viewBox="0 0 500.000000 700.000000"
 preserveAspectRatio="xMidYMid meet">
<metadata>
Created by potrace 1.16, written by Peter Selinger 2001-2019
</metadata>
<g transform="translate(0.000000,700.000000) scale(0.100000,-0.100000)"
fill="#000000" stroke="none">
<path d="M0 3500 l0 -3500 2500 0 2500 0 0 3500 0 3500 -2500 0 -2500 0 0
-3500z m4920 0 l0 -3420 -2420 0 -2420 0 0 3420 0 3420 2420 0 2420 0 0 -3420z"/>
<path d="M790 6779 c-210 -30 -346 -167 -386 -389 -48 -268 42 -511 227 -610
68 -36 202 -64 260 -55 l36 6 7 -50 c9 -71 57 -138 125 -173 48 -25 63 -28
145 -27 50 1 105 4 121 8 29 6 30 8 33 70 3 62 3 63 -20 57 -49 -15 -183 -17
-207 -4 -36 19 -62 60 -68 104 -5 40 -5 40 56 78 98 60 170 166 202 296 19 78
17 269 -5 350 -33 126 -117 240 -213 288 -87 45 -215 66 -313 51z m208 -139
c107 -48 173 -151 192 -303 21 -167 -16 -320 -96 -402 -66 -69 -120 -89 -229
-89 -107 0 -144 14 -213 79 -93 86 -135 242 -113 412 14 115 50 191 118 253
30 28 58 50 61 50 4 1 30 7 57 15 64 19 161 12 223 -15z"/>
<path d="M3505 6236 c-89 -42 -134 -117 -135 -221 0 -79 9 -95 205 -356 88
-118 187 -251 220 -296 33 -45 62 -82 65 -82 3 0 32 37 65 82 33 45 132 178
220 296 195 260 205 277 205 353 0 144 -101 248 -243 248 -69 0 -120 -19 -165
-63 -36 -34 -72 -96 -72 -122 0 -8 -4 -15 -10 -15 -5 0 -10 7 -10 15 0 26 -36
88 -72 122 -70 67 -180 83 -273 39z"/>
<path d="M2355 4759 c-265 -34 -480 -168 -605 -379 -80 -134 -118 -274 -127
-467 -15 -318 73 -564 268 -748 157 -149 340 -215 595 -215 l121 0 135 -70
c150 -78 332 -150 512 -204 l120 -35 113 111 c62 62 113 115 113 119 0 4 -30
10 -67 14 -137 14 -581 118 -603 142 -3 3 3 10 13 17 127 78 221 160 279 244
186 268 209 730 53 1042 -40 82 -128 192 -198 250 -71 59 -214 132 -302 154
-134 34 -281 42 -420 25z m260 -244 c126 -33 234 -126 298 -259 62 -127 71
-178 72 -396 0 -174 -2 -203 -23 -275 -35 -121 -84 -205 -162 -279 -97 -91
-150 -110 -305 -111 -114 0 -123 2 -185 31 -215 102 -335 394 -302 735 20 196
76 336 179 441 107 109 273 153 428 113z"/>
<path d="M965 1477 c-98 -133 -203 -272 -233 -310 -30 -37 -60 -84 -68 -105
-41 -115 11 -247 121 -305 57 -30 164 -30 222 1 53 28 103 87 124 148 12 34
18 42 18 25 1 -36 50 -118 87 -146 154 -118 367 -30 399 162 9 57 -16 138 -58
188 -18 22 -124 162 -234 312 l-200 271 -178 -241z"/>
<path d="M3675 1512 c-29 -7 -30 -9 -33 -71 l-3 -64 28 7 c61 15 178 17 202 4
35 -19 62 -60 68 -104 5 -39 4 -39 -61 -82 -99 -65 -165 -163 -197 -292 -19
-79 -17 -269 5 -350 59 -219 222 -343 451 -343 246 0 417 145 460 390 50 279
-48 532 -242 623 -59 28 -195 53 -244 45 l-36 -6 -5 46 c-8 64 -53 133 -112
170 -46 28 -57 30 -150 32 -56 1 -114 -2 -131 -5z m545 -363 c97 -22 182 -106
221 -219 32 -94 32 -277 0 -369 -44 -125 -123 -200 -236 -221 -156 -29 -297
40 -359 179 -48 108 -54 311 -12 429 57 158 214 240 386 201z"/>
</g>
</svg>
