<?xml version="1.0" standalone="no"?>
<!DOCTYPE svg PUBLIC "-//W3C//DTD SVG 20010904//EN"
 "http://www.w3.org/TR/2001/REC-SVG-20010904/DTD/svg10.dtd">
<svg version="1.0" xmlns="http://www.w3.org/2000/svg"
 width="500.000000pt" height="700.000000pt" viewBox="0 0 500.000000 700.000000"
 preserveAspectRatio="xMidYMid meet">
<metadata>
Created by potrace 1.16, written by Peter Selinger 2001-2019
</metadata>
<g transform="translate(0.000000,700.000000) scale(0.100000,-0.100000)"
fill="#000000" stroke="none">
<path d="M0 3500 l0 -3500 2500 0 2500 0 0 3500 0 3500 -2500 0 -2500 0 0
-3500z m4920 0 l0 -3420 -2420 0 -2420 0 0 3420 0 3420 2420 0 2420 0 0 -3420z"/>
<path d="M1176 6760 c-91 -36 -155 -118 -191 -246 -25 -88 -32 -356 -12 -459
45 -237 141 -330 342 -329 232 1 344 169 345 520 0 289 -72 459 -218 514 -71
27 -197 27 -266 0z m217 -104 c46 -19 84 -68 104 -134 26 -83 26 -451 0 -534
-31 -102 -89 -148 -187 -148 -96 0 -152 43 -187 142 -15 45 -18 85 -18 273 0
188 3 228 18 273 22 62 59 110 102 128 39 17 127 18 168 0z"/>
<path d="M396 6737 c-11 -61 -69 -98 -166 -106 l-65 -6 -3 -47 -3 -48 105 0
106 0 0 -340 0 -340 -106 0 -105 0 3 -52 3 -53 275 0 275 0 0 50 0 50 -102 3
-103 3 -2 457 -3 457 -51 3 c-51 3 -52 3 -58 -31z"/>
<path d="M1512 5219 c-63 -32 -96 -92 -90 -168 3 -37 11 -68 25 -87 l22 -30
-59 4 c-50 4 -66 0 -104 -22 -122 -72 -110 -256 21 -312 68 -29 170 -6 207 48
14 20 16 13 18 -92 3 -101 5 -114 23 -126 18 -12 24 -11 43 2 20 14 22 23 22
127 0 104 1 110 16 89 37 -54 151 -80 212 -48 92 48 126 150 81 243 -31 64
-91 97 -169 91 l-59 -4 22 30 c14 19 22 50 25 87 4 49 0 65 -22 103 -47 80
-147 108 -234 65z"/>
<path d="M3322 5219 c-63 -32 -96 -92 -90 -168 3 -37 11 -68 25 -87 l22 -30
-59 4 c-50 4 -66 0 -104 -22 -122 -72 -110 -256 21 -312 68 -29 170 -6 207 48
14 20 16 13 18 -92 3 -101 5 -114 23 -126 18 -12 24 -11 43 2 20 14 22 23 22
127 0 104 1 110 16 89 37 -54 151 -80 212 -48 92 48 126 150 81 243 -31 64
-91 97 -169 91 l-59 -4 22 30 c14 19 22 50 25 87 4 49 0 65 -22 103 -47 80
-147 108 -234 65z"/>
<path d="M2412 4759 c-63 -32 -96 -92 -90 -168 3 -37 11 -68 25 -87 l22 -30
-58 4 c-95 7 -171 -46 -171 -119 0 -22 -4 -39 -10 -39 -13 0 -13 -41 1 -77 14
-38 57 -83 96 -99 68 -29 170 -6 207 48 14 20 16 13 18 -92 3 -101 5 -114 23
-126 18 -12 24 -11 43 2 20 14 22 23 22 127 0 104 1 110 16 89 37 -54 151 -80
212 -48 37 19 78 65 92 101 14 38 4 120 -21 160 -10 17 -37 41 -59 54 -34 19
-52 23 -100 19 l-59 -4 22 30 c14 19 22 50 25 87 4 49 0 65 -22 103 -47 80
-147 108 -234 65z"/>
<path d="M1495 4300 c-17 -11 -41 -38 -54 -61 -30 -52 -27 -139 6 -185 l22
-30 -59 4 c-50 4 -66 0 -104 -22 -122 -72 -110 -256 21 -312 68 -29 170 -6
207 48 14 20 16 13 18 -92 3 -101 5 -114 23 -126 18 -12 24 -11 43 2 20 14 22
23 22 127 0 104 1 110 16 89 38 -54 151 -79 213 -48 15 8 42 31 59 50 33 38
54 107 33 114 -6 2 -11 23 -11 46 0 78 -74 131 -171 124 l-58 -4 22 30 c33 46
36 133 6 186 -34 60 -72 80 -155 80 -51 0 -77 -5 -99 -20z"/>
<path d="M3305 4300 c-17 -11 -41 -38 -54 -61 -30 -52 -27 -139 6 -185 l22
-30 -59 4 c-103 8 -171 -49 -184 -154 -7 -60 4 -97 42 -138 34 -36 80 -56 132
-56 47 0 112 30 134 62 14 20 16 13 18 -92 3 -101 5 -114 23 -126 18 -12 24
-11 43 2 20 14 22 23 22 127 0 104 1 110 16 89 37 -54 151 -80 212 -48 92 48
126 150 81 243 -31 64 -91 97 -169 91 l-59 -4 22 30 c33 46 36 133 6 186 -34
60 -72 80 -155 80 -51 0 -77 -5 -99 -20z"/>
<path d="M1540 3330 l0 -81 -40 32 c-29 23 -53 33 -89 37 -66 6 -93 -2 -137
-40 -86 -76 -86 -190 0 -266 43 -38 71 -46 135 -40 l48 5 -23 -41 c-41 -72
-28 -162 32 -218 113 -105 296 -24 296 131 0 51 -11 81 -46 120 l-21 24 22
-12 c36 -19 114 -13 158 12 113 64 113 240 0 304 -73 41 -187 22 -229 -39 -15
-21 -16 -17 -16 65 l0 87 -45 0 -45 0 0 -80z"/>
<path d="M3370 3323 c0 -82 -1 -86 -16 -65 -24 34 -87 62 -141 62 -99 -1 -173
-75 -173 -175 0 -100 74 -174 173 -175 27 0 58 5 70 11 l22 12 -21 -24 c-34
-38 -46 -69 -47 -119 -2 -95 81 -180 176 -180 136 0 221 148 153 266 l-23 41
48 -5 c64 -6 92 2 135 40 61 54 80 130 50 201 -16 38 -76 94 -112 103 -53 13
-123 -2 -164 -35 l-40 -32 0 81 0 80 -45 0 -45 0 0 -87z"/>
<path d="M2476 3014 c-13 -12 -16 -39 -16 -126 l0 -111 -20 25 c-28 36 -80 58
-136 58 -152 0 -230 -182 -126 -294 48 -51 141 -73 195 -45 l22 12 -22 -24
c-43 -48 -57 -142 -29 -197 70 -135 252 -135 322 0 28 55 14 149 -29 197 l-22
24 22 -12 c29 -15 97 -14 136 3 18 7 47 30 65 50 30 34 32 42 32 108 0 53 -5
79 -20 102 -51 83 -180 101 -260 37 l-40 -32 0 104 c0 88 -3 106 -18 120 -23
21 -36 21 -56 1z"/>
<path d="M1540 2418 l0 -82 -27 26 c-42 38 -66 48 -123 48 -172 0 -243 -211
-105 -315 41 -32 127 -45 163 -26 21 11 20 9 -3 -25 -32 -47 -39 -74 -32 -130
14 -132 184 -199 283 -112 47 41 66 82 66 138 0 50 -12 81 -46 118 l-21 23 28
-10 c76 -29 171 4 212 73 30 51 33 121 9 173 -48 99 -197 126 -279 49 l-35
-33 0 83 0 84 -45 0 -45 0 0 -82z"/>
<path d="M3370 2414 l0 -87 -20 25 c-63 80 -212 76 -276 -7 -33 -43 -35 -160
-4 -211 37 -59 136 -90 207 -63 l28 10 -21 -23 c-34 -37 -46 -68 -46 -118 0
-56 19 -97 66 -138 99 -87 269 -20 283 112 7 56 0 83 -32 130 -23 34 -24 36
-3 25 36 -19 122 -6 163 26 138 104 67 315 -105 315 -57 0 -81 -10 -122 -48
l-28 -26 0 82 0 82 -45 0 -45 0 0 -86z"/>
<path d="M3619 1270 c-130 -23 -210 -109 -255 -271 -27 -94 -26 -405 0 -504
51 -193 149 -275 326 -275 241 0 350 163 350 525 0 353 -96 510 -320 529 -30
3 -76 1 -101 -4z m154 -124 c44 -18 81 -64 104 -128 15 -45 18 -85 18 -273 0
-188 -3 -228 -18 -273 -35 -99 -91 -142 -187 -142 -98 0 -156 46 -187 148 -26
83 -26 451 0 534 20 65 58 115 102 134 39 17 127 18 168 0z"/>
<path d="M4284 1246 c-3 -8 -4 -31 -2 -52 l3 -39 102 -3 103 -3 2 -457 3 -457
51 -3 c51 -3 52 -3 58 31 11 61 69 98 166 106 l65 6 3 48 3 47 -105 0 -106 0
0 340 0 340 106 0 105 0 -3 53 -3 52 -273 3 c-227 2 -273 0 -278 -12z"/>
</g>
</svg>
