<?xml version="1.0" standalone="no"?>
<!DOCTYPE svg PUBLIC "-//W3C//DTD SVG 20010904//EN"
 "http://www.w3.org/TR/2001/REC-SVG-20010904/DTD/svg10.dtd">
<svg version="1.0" xmlns="http://www.w3.org/2000/svg"
 width="500.000000pt" height="700.000000pt" viewBox="0 0 500.000000 700.000000"
 preserveAspectRatio="xMidYMid meet">
<metadata>
Created by potrace 1.16, written by Peter Selinger 2001-2019
</metadata>
<g transform="translate(0.000000,700.000000) scale(0.100000,-0.100000)"
fill="#000000" stroke="none">
<path d="M0 3500 l0 -3500 2500 0 2500 0 0 3500 0 3500 -2500 0 -2500 0 0
-3500z m4920 0 l0 -3420 -2420 0 -2420 0 0 3420 0 3420 2420 0 2420 0 0 -3420z"/>
<path d="M1176 6760 c-91 -36 -155 -118 -191 -246 -25 -88 -32 -356 -12 -459
45 -237 141 -330 342 -329 232 1 344 169 345 520 0 289 -72 459 -218 514 -71
27 -197 27 -266 0z m217 -104 c46 -19 84 -68 104 -134 26 -83 26 -451 0 -534
-31 -102 -89 -148 -187 -148 -96 0 -152 43 -187 142 -15 45 -18 85 -18 273 0
188 3 228 18 273 22 62 59 110 102 128 39 17 127 18 168 0z"/>
<path d="M396 6737 c-11 -61 -69 -98 -166 -106 l-65 -6 -3 -47 -3 -48 105 0
106 0 0 -340 0 -340 -106 0 -105 0 3 -52 3 -53 275 0 275 0 0 50 0 50 -102 3
-103 3 -2 457 -3 457 -51 3 c-51 3 -52 3 -58 -31z"/>
<path d="M1455 5073 c-77 -102 -143 -191 -147 -198 -5 -8 49 -88 138 -206 80
-107 147 -194 149 -194 12 0 293 390 288 399 -7 11 -271 366 -282 378 -4 4
-70 -76 -146 -179z"/>
<path d="M3265 5073 c-77 -102 -143 -191 -147 -198 -5 -8 49 -88 138 -206 80
-107 147 -194 149 -194 12 0 293 390 288 399 -7 11 -271 366 -282 378 -4 4
-70 -76 -146 -179z"/>
<path d="M2355 4613 c-77 -102 -143 -191 -147 -198 -5 -8 49 -88 138 -206 80
-107 147 -194 149 -194 12 0 293 390 288 399 -7 11 -271 366 -282 378 -4 4
-70 -76 -146 -179z"/>
<path d="M1443 4148 c-71 -95 -132 -178 -136 -184 -5 -9 263 -382 285 -395 11
-7 298 383 291 395 -4 6 -65 89 -136 184 -101 134 -134 172 -152 172 -18 0
-51 -38 -152 -172z"/>
<path d="M3253 4148 c-71 -95 -132 -178 -136 -184 -5 -9 263 -382 285 -395 11
-7 298 383 291 395 -4 6 -65 89 -136 184 -101 134 -134 172 -152 172 -18 0
-51 -38 -152 -172z"/>
<path d="M1426 3228 l-136 -181 23 -31 c13 -17 80 -106 149 -198 l126 -168
146 195 c80 107 146 197 146 200 0 3 -61 86 -135 185 -109 144 -140 180 -159
180 -19 0 -50 -36 -160 -182z"/>
<path d="M3255 3230 c-74 -99 -135 -182 -135 -185 0 -3 66 -93 146 -200 l146
-195 126 168 c69 92 136 181 149 198 l23 31 -136 181 c-110 146 -141 182 -160
182 -19 0 -50 -36 -159 -180z"/>
<path d="M2357 2786 c-81 -108 -147 -197 -147 -199 0 -6 291 -392 295 -392 4
0 295 386 295 392 0 4 -268 363 -285 381 -9 10 -41 -26 -158 -182z"/>
<path d="M1426 2318 l-136 -181 23 -31 c13 -17 80 -106 149 -198 l125 -167
139 186 c76 102 143 192 147 200 6 10 -31 68 -125 193 -113 152 -137 179 -159
180 -23 0 -46 -25 -163 -182z"/>
<path d="M3252 2320 c-94 -125 -131 -183 -125 -193 4 -8 71 -98 147 -200 l139
-186 125 167 c69 92 136 181 149 198 l23 31 -136 181 c-117 157 -140 182 -163
182 -22 -1 -46 -28 -159 -180z"/>
<path d="M3619 1270 c-130 -23 -210 -109 -255 -271 -27 -94 -26 -405 0 -504
51 -193 149 -275 326 -275 241 0 350 163 350 525 0 353 -96 510 -320 529 -30
3 -76 1 -101 -4z m154 -124 c44 -18 81 -64 104 -128 15 -45 18 -85 18 -273 0
-188 -3 -228 -18 -273 -35 -99 -91 -142 -187 -142 -98 0 -156 46 -187 148 -26
83 -26 451 0 534 20 65 58 115 102 134 39 17 127 18 168 0z"/>
<path d="M4284 1246 c-3 -8 -4 -31 -2 -52 l3 -39 102 -3 103 -3 2 -457 3 -457
51 -3 c51 -3 52 -3 58 31 11 61 69 98 166 106 l65 6 3 48 3 47 -105 0 -106 0
0 340 0 340 106 0 105 0 -3 53 -3 52 -273 3 c-227 2 -273 0 -278 -12z"/>
</g>
</svg>
