<?xml version="1.0" standalone="no"?>
<!DOCTYPE svg PUBLIC "-//W3C//DTD SVG 20010904//EN"
 "http://www.w3.org/TR/2001/REC-SVG-20010904/DTD/svg10.dtd">
<svg version="1.0" xmlns="http://www.w3.org/2000/svg"
 width="500.000000pt" height="700.000000pt" viewBox="0 0 500.000000 700.000000"
 preserveAspectRatio="xMidYMid meet">
<metadata>
Created by potrace 1.16, written by Peter Selinger 2001-2019
</metadata>
<g transform="translate(0.000000,700.000000) scale(0.100000,-0.100000)"
fill="#000000" stroke="none">
<path d="M0 3500 l0 -3500 2500 0 2500 0 0 3500 0 3500 -2500 0 -2500 0 0
-3500z m4920 0 l0 -3420 -2420 0 -2420 0 0 3420 0 3420 2420 0 2420 0 0 -3420z"/>
<path d="M1176 6760 c-91 -36 -155 -118 -191 -246 -25 -88 -32 -356 -12 -459
45 -237 141 -330 342 -329 232 1 344 169 345 520 0 289 -72 459 -218 514 -71
27 -197 27 -266 0z m217 -104 c46 -19 84 -68 104 -134 26 -83 26 -451 0 -534
-31 -102 -89 -148 -187 -148 -96 0 -152 43 -187 142 -15 45 -18 85 -18 273 0
188 3 228 18 273 22 62 59 110 102 128 39 17 127 18 168 0z"/>
<path d="M396 6737 c-11 -61 -69 -98 -166 -106 l-65 -6 -3 -47 -3 -48 105 0
106 0 0 -340 0 -340 -106 0 -105 0 3 -52 3 -53 275 0 275 0 0 50 0 50 -102 3
-103 3 -2 457 -3 457 -51 3 c-51 3 -52 3 -58 -31z"/>
<path d="M1315 5241 c-115 -53 -153 -204 -74 -296 9 -11 92 -121 184 -245 91
-124 168 -225 170 -225 3 0 79 101 171 225 91 124 174 234 183 245 43 50 53
127 26 193 -71 169 -317 157 -369 -19 l-13 -43 -7 37 c-9 46 -66 112 -114 133
-47 19 -109 17 -157 -5z"/>
<path d="M3125 5241 c-115 -53 -153 -204 -74 -296 9 -11 92 -121 184 -245 91
-124 168 -225 170 -225 3 0 79 101 171 225 91 124 174 234 183 245 43 50 53
127 26 193 -71 169 -317 157 -369 -19 l-13 -43 -7 37 c-9 46 -66 112 -114 133
-47 19 -109 17 -157 -5z"/>
<path d="M2220 4784 c-75 -32 -80 -44 -80 -176 l0 -119 171 -232 c94 -128 175
-235 178 -239 4 -5 43 40 86 100 44 59 126 169 182 245 l103 138 0 107 c0 105
-1 109 -27 135 -107 102 -286 56 -327 -84 l-13 -43 -7 37 c-9 46 -66 112 -114
133 -44 18 -107 17 -152 -2z"/>
<path d="M1257 4293 c-55 -59 -73 -157 -39 -220 9 -17 69 -100 132 -185 63
-84 144 -192 180 -240 35 -49 67 -85 71 -80 4 4 84 111 178 239 l171 232 0
119 c0 111 -1 120 -23 140 -21 20 -34 22 -134 22 l-111 0 -35 -39 c-21 -23
-39 -56 -43 -78 l-7 -37 -13 43 c-7 24 -27 59 -45 77 l-33 34 -111 0 c-108 0
-112 -1 -138 -27z"/>
<path d="M3067 4292 c-26 -27 -27 -33 -27 -135 l0 -106 118 -158 c64 -87 146
-197 182 -245 35 -49 67 -85 71 -80 4 4 80 106 169 227 89 121 170 229 179
240 60 70 53 186 -16 258 -26 26 -30 27 -138 27 l-111 0 -33 -34 c-18 -18 -38
-53 -45 -77 l-13 -43 -7 37 c-4 22 -22 55 -43 78 l-35 39 -112 0 c-110 0 -113
-1 -139 -28z"/>
<path d="M1390 3176 c-96 -129 -181 -252 -189 -273 -42 -115 59 -253 185 -253
61 0 139 43 169 94 14 24 25 54 26 67 l1 24 7 -25 c58 -190 285 -218 373 -46
15 30 19 53 16 97 -5 66 6 49 -211 339 -118 158 -159 206 -178 208 -21 2 -46
-27 -199 -232z"/>
<path d="M3253 3224 c-76 -103 -153 -205 -172 -228 -44 -54 -61 -95 -61 -151
0 -78 48 -148 122 -180 112 -46 230 17 269 145 l7 25 1 -24 c1 -13 12 -43 26
-67 30 -51 108 -94 169 -94 127 0 228 139 184 255 -8 22 -92 144 -187 270
-131 176 -177 231 -196 233 -21 3 -42 -22 -162 -184z"/>
<path d="M2339 2760 c-90 -121 -177 -238 -193 -260 -84 -113 -10 -285 131
-306 92 -14 191 47 216 132 l13 44 11 -43 c23 -85 123 -147 216 -133 141 21
215 193 131 306 -155 210 -339 457 -349 468 -9 10 -47 -34 -176 -208z"/>
<path d="M1390 2269 c-95 -128 -178 -247 -186 -265 -24 -58 -13 -128 30 -187
23 -32 109 -77 145 -77 96 0 200 84 201 162 1 15 7 6 20 -27 49 -126 193 -171
300 -94 77 56 102 164 58 246 -13 23 -96 138 -185 257 -132 176 -167 216 -186
216 -20 0 -56 -42 -197 -231z"/>
<path d="M3355 2457 c-16 -23 -88 -120 -160 -215 -71 -96 -140 -192 -152 -215
-46 -84 -21 -189 58 -247 106 -76 251 -31 299 95 13 33 19 42 20 27 1 -78 105
-162 201 -162 36 0 122 45 145 77 43 59 54 129 30 187 -8 18 -91 137 -186 265
-196 263 -200 266 -255 188z"/>
<path d="M3619 1270 c-130 -23 -210 -109 -255 -271 -27 -94 -26 -405 0 -504
51 -193 149 -275 326 -275 241 0 350 163 350 525 0 353 -96 510 -320 529 -30
3 -76 1 -101 -4z m154 -124 c44 -18 81 -64 104 -128 15 -45 18 -85 18 -273 0
-188 -3 -228 -18 -273 -35 -99 -91 -142 -187 -142 -98 0 -156 46 -187 148 -26
83 -26 451 0 534 20 65 58 115 102 134 39 17 127 18 168 0z"/>
<path d="M4284 1246 c-3 -8 -4 -31 -2 -52 l3 -39 102 -3 103 -3 2 -457 3 -457
51 -3 c51 -3 52 -3 58 31 11 61 69 98 166 106 l65 6 3 48 3 47 -105 0 -106 0
0 340 0 340 106 0 105 0 -3 53 -3 52 -273 3 c-227 2 -273 0 -278 -12z"/>
</g>
</svg>
