<?xml version="1.0" standalone="no"?>
<!DOCTYPE svg PUBLIC "-//W3C//DTD SVG 20010904//EN"
 "http://www.w3.org/TR/2001/REC-SVG-20010904/DTD/svg10.dtd">
<svg version="1.0" xmlns="http://www.w3.org/2000/svg"
 width="500.000000pt" height="700.000000pt" viewBox="0 0 500.000000 700.000000"
 preserveAspectRatio="xMidYMid meet">
<metadata>
Created by potrace 1.16, written by Peter Selinger 2001-2019
</metadata>
<g transform="translate(0.000000,700.000000) scale(0.100000,-0.100000)"
fill="#000000" stroke="none">
<path d="M0 3500 l0 -3500 2500 0 2500 0 0 3500 0 3500 -2500 0 -2500 0 0
-3500z m4920 0 l0 -3420 -2420 0 -2420 0 0 3420 0 3420 2420 0 2420 0 0 -3420z"/>
<path d="M1176 6760 c-91 -36 -155 -118 -191 -246 -25 -88 -32 -356 -12 -459
45 -237 141 -330 342 -329 232 1 344 169 345 520 0 289 -72 459 -218 514 -71
27 -197 27 -266 0z m217 -104 c46 -19 84 -68 104 -134 26 -83 26 -451 0 -534
-31 -102 -89 -148 -187 -148 -96 0 -152 43 -187 142 -15 45 -18 85 -18 273 0
188 3 228 18 273 22 62 59 110 102 128 39 17 127 18 168 0z"/>
<path d="M396 6737 c-11 -61 -69 -98 -166 -106 l-65 -6 -3 -47 -3 -48 105 0
106 0 0 -340 0 -340 -106 0 -105 0 3 -52 3 -53 275 0 275 0 0 50 0 50 -102 3
-103 3 -2 457 -3 457 -51 3 c-51 3 -52 3 -58 -31z"/>
<path d="M1414 5069 c-99 -104 -187 -205 -196 -222 -33 -61 -17 -160 35 -215
64 -69 176 -81 256 -29 l41 27 0 -89 c0 -81 2 -91 22 -105 19 -13 25 -14 43
-2 17 12 20 26 23 105 l3 91 40 -27 c79 -52 192 -40 256 29 52 55 68 154 35
215 -13 25 -368 413 -377 413 -1 0 -83 -86 -181 -191z"/>
<path d="M3224 5069 c-99 -104 -187 -205 -196 -222 -33 -61 -17 -160 35 -215
64 -69 176 -81 256 -29 l41 27 0 -89 c0 -81 2 -91 22 -105 19 -13 25 -14 43
-2 17 12 20 26 23 105 l3 91 40 -27 c79 -52 192 -40 256 29 52 55 68 154 35
215 -13 25 -368 413 -377 413 -1 0 -83 -86 -181 -191z"/>
<path d="M2318 4614 l-178 -189 0 -52 c0 -46 -3 -53 -20 -53 -25 0 -27 -35 -5
-88 49 -115 189 -158 294 -89 l41 27 0 -89 c0 -81 2 -91 22 -105 19 -13 25
-14 43 -2 17 12 20 26 23 105 l3 91 40 -27 c79 -52 192 -40 256 29 45 48 70
148 38 148 -11 0 -15 12 -15 46 0 51 21 25 -277 343 l-88 93 -177 -188z"/>
<path d="M1400 4145 c-91 -97 -173 -191 -182 -208 -33 -61 -17 -160 35 -215
64 -69 176 -81 256 -29 l41 27 0 -89 c0 -81 2 -91 22 -105 19 -13 25 -14 43
-2 17 12 20 26 23 105 l3 91 40 -27 c105 -69 245 -26 294 89 21 52 20 78 -5
78 -18 0 -20 7 -20 58 l0 57 -160 170 c-136 145 -164 170 -192 173 -31 3 -43
-8 -198 -173z"/>
<path d="M3207 4143 l-166 -178 -1 -52 c0 -40 -4 -53 -15 -53 -31 0 -6 -92 38
-138 64 -69 176 -81 256 -29 l41 27 0 -89 c0 -81 2 -91 22 -105 19 -13 25 -14
43 -2 17 12 20 26 23 105 l3 91 40 -27 c79 -52 192 -40 256 29 52 55 68 154
35 215 -9 17 -91 111 -182 207 -144 154 -168 176 -195 176 -27 0 -51 -22 -198
-177z"/>
<path d="M1540 3343 c0 -62 -1 -65 -17 -51 -79 69 -209 62 -280 -14 -50 -53
-66 -138 -38 -204 8 -19 97 -122 197 -229 l183 -195 65 67 c227 236 304 322
317 353 21 49 13 139 -17 182 -35 52 -83 81 -145 86 -63 5 -110 -9 -148 -43
l-27 -26 0 71 0 70 -45 0 -45 0 0 -67z"/>
<path d="M3370 3340 l0 -71 -27 26 c-82 75 -227 55 -293 -43 -30 -43 -38 -133
-17 -182 13 -31 96 -123 317 -352 l65 -68 180 191 c99 105 188 208 197 228 32
66 17 154 -35 209 -71 76 -201 83 -279 14 -17 -14 -18 -11 -18 51 l0 67 -45 0
-45 0 0 -70z"/>
<path d="M2476 3014 c-12 -12 -16 -37 -16 -104 l0 -90 -47 30 c-37 23 -58 30
-99 30 -68 0 -100 -13 -146 -58 l-38 -36 0 -98 0 -99 123 -130 c67 -72 151
-162 187 -200 l65 -70 182 193 182 193 1 111 0 110 -32 31 c-66 63 -163 73
-241 23 l-47 -30 0 89 c0 72 -3 91 -18 104 -23 21 -36 21 -56 1z"/>
<path d="M1540 2434 l0 -65 -35 27 c-66 50 -180 45 -242 -9 -66 -58 -90 -148
-58 -223 8 -19 97 -123 197 -229 l183 -194 75 78 c41 44 126 133 188 200 l112
120 0 96 c0 111 -9 132 -75 170 -62 37 -145 35 -208 -5 l-47 -30 0 65 0 65
-45 0 -45 0 0 -66z"/>
<path d="M3370 2435 l0 -65 -47 30 c-63 40 -146 42 -209 5 -24 -14 -48 -34
-54 -45 -5 -10 -10 -67 -10 -127 l1 -108 178 -189 c98 -104 182 -187 187 -185
23 10 352 365 372 401 41 76 20 172 -51 235 -62 54 -176 59 -242 9 l-35 -27 0
65 0 66 -45 0 -45 0 0 -65z"/>
<path d="M3619 1270 c-130 -23 -210 -109 -255 -271 -27 -94 -26 -405 0 -504
51 -193 149 -275 326 -275 241 0 350 163 350 525 0 353 -96 510 -320 529 -30
3 -76 1 -101 -4z m154 -124 c44 -18 81 -64 104 -128 15 -45 18 -85 18 -273 0
-188 -3 -228 -18 -273 -35 -99 -91 -142 -187 -142 -98 0 -156 46 -187 148 -26
83 -26 451 0 534 20 65 58 115 102 134 39 17 127 18 168 0z"/>
<path d="M4284 1246 c-3 -8 -4 -31 -2 -52 l3 -39 102 -3 103 -3 2 -457 3 -457
51 -3 c51 -3 52 -3 58 31 11 61 69 98 166 106 l65 6 3 48 3 47 -105 0 -106 0
0 340 0 340 106 0 105 0 -3 53 -3 52 -273 3 c-227 2 -273 0 -278 -12z"/>
</g>
</svg>
