<?xml version="1.0" standalone="no"?>
<!DOCTYPE svg PUBLIC "-//W3C//DTD SVG 20010904//EN"
 "http://www.w3.org/TR/2001/REC-SVG-20010904/DTD/svg10.dtd">
<svg version="1.0" xmlns="http://www.w3.org/2000/svg"
 width="500.000000pt" height="700.000000pt" viewBox="0 0 500.000000 700.000000"
 preserveAspectRatio="xMidYMid meet">
<metadata>
Created by potrace 1.16, written by Peter Selinger 2001-2019
</metadata>
<g transform="translate(0.000000,700.000000) scale(0.100000,-0.100000)"
fill="#000000" stroke="none">
<path d="M0 3500 l0 -3500 2500 0 2500 0 0 3500 0 3500 -2500 0 -2500 0 0
-3500z m4920 0 l0 -3420 -2420 0 -2420 0 0 3420 0 3420 2420 0 2420 0 0 -3420z"/>
<path d="M761 6733 c-48 -118 -357 -983 -353 -988 11 -11 121 -5 129 8 4 6 29
71 54 142 l46 130 220 3 220 2 48 -132 c26 -73 50 -139 52 -145 8 -20 146 -18
141 1 -2 8 -84 238 -183 510 l-180 496 -91 0 c-91 0 -92 0 -103 -27z m188
-338 c46 -130 81 -238 79 -241 -3 -2 -81 -3 -175 -2 l-169 3 85 238 c47 130
87 237 90 237 4 0 44 -106 90 -235z"/>
<path d="M2140 3999 c-200 -266 -366 -489 -371 -494 -6 -8 677 -934 726 -984
11 -11 70 63 375 470 200 266 366 489 371 494 6 8 -677 934 -726 984 -11 11
-70 -63 -375 -470z"/>
<path d="M3682 1246 c2 -8 84 -238 183 -510 l180 -496 91 0 c91 0 92 0 103 28
44 108 357 983 353 987 -11 11 -121 5 -129 -7 -4 -7 -29 -71 -54 -143 l-46
-130 -221 -3 -220 -2 -50 142 -50 143 -72 3 c-59 2 -71 0 -68 -12z m602 -493
c-20 -54 -58 -162 -86 -240 -28 -79 -53 -143 -57 -143 -5 0 -171 457 -171 473
0 4 79 7 175 7 l175 0 -36 -97z"/>
</g>
</svg>
